<svg width="576" height="161" viewBox="0 0 576 161" fill="none" xmlns="http://www.w3.org/2000/svg">
<path d="M195 109.388C215.8 82.288 213.4 43.188 188 18.788C161.7 -6.41204 119.6 -6.21203 93.5 19.088C66.1 45.588 65.9001 89.288 92.7001 116.188C117.1 140.588 155.5 142.588 182.2 122.088L218.1 157.988C221.6 161.488 227.3 161.488 230.8 157.988C234.3 154.488 234.3 148.788 230.8 145.288L195 109.388ZM178.1 101.588C158.1 123.688 123.6 123.688 103.6 101.588C86.5 82.688 86.5 53.388 103.6 34.488C123.6 12.388 158.1 12.388 178.1 34.488C195.2 53.388 195.2 82.688 178.1 101.588Z" fill="#20B086"/>
<path d="M162 82.688L161.8 81.888H150.6V32.988H145.7L118.9 45.488L119 46.288C119.2 47.388 119.5 48.588 119.8 49.888C120.2 51.088 120.6 52.388 121.1 53.488C121.6 54.688 122.1 55.788 122.7 56.988C123.2 58.088 123.8 59.088 124.3 59.988L124.7 60.588L133.8 56.788V81.888H122.5L122.3 82.688C121.8 85.288 121.5 87.788 121.5 90.088C121.5 92.588 121.8 95.088 122.3 97.688L122.5 98.488H161.9L162.1 97.688C162.6 95.088 162.9 92.588 162.9 90.088C162.8 87.688 162.5 85.188 162 82.688Z" fill="#20B086"/>
<path d="M31.6 32.588C47.5 32.588 58.2 40.888 61.7 55.188H44.3C42.5 49.788 38.2 46.288 31.5 46.288C22.5 46.288 16.5 53.088 16.5 65.488C16.5 77.888 22.5 84.588 31.5 84.588C38.2 84.588 42.3 81.588 44.3 75.788H61.7C58.2 89.488 47.5 98.488 31.6 98.488C13.2 98.488 0 85.588 0 65.588C0.1 45.488 13.2 32.588 31.6 32.588Z" fill="#4717B0"/>
<path d="M266.1 62.188C266.1 51.988 260.5 46.388 251.9 46.388C243.1 46.388 237.5 51.888 237.5 62.188V97.388H221.4V33.588H237.6V41.488C241.7 36.088 248.7 32.588 256.8 32.588C271.7 32.588 282.2 42.288 282.2 59.888V97.288H266.1V62.188V62.188Z" fill="#4717B0"/>
<path d="M322 98.488C306 98.488 294.8 89.188 294.1 77.288H310.3C310.9 82.088 315.4 85.788 321.8 85.788C328.1 85.788 331.6 82.888 331.6 79.188C331.6 67.788 295.6 75.088 295.6 51.688C295.6 41.088 305 32.588 320.8 32.588C336.2 32.588 345.6 40.988 346.5 53.688H331.1C330.6 48.688 326.7 45.388 320.4 45.388C314.4 45.388 311.3 47.788 311.3 51.488C311.3 63.088 346.7 55.888 347.1 79.288C347.1 90.188 337.5 98.488 322 98.488Z" fill="#4717B0"/>
<path d="M420.6 97.388H404.4V89.288C400.4 94.688 393.3 98.188 385.4 98.188C370.5 98.188 359.8 88.488 359.8 70.988V33.588H375.9V68.688C375.9 78.888 381.5 84.488 390.1 84.488C398.9 84.488 404.4 78.988 404.4 68.688V33.588H420.6V97.388Z" fill="#4717B0"/>
<path d="M436.5 12.188H452.6V97.388H436.5V12.188Z" fill="#4717B0"/>
<path d="M471 46.888H463.4V33.688H471V17.888H487.2V33.688H501.5V46.888H487.2V77.788C487.2 82.088 488.9 83.888 494 83.888H501.5V97.488H491.4C479.2 97.488 471 92.288 471 77.688V46.888Z" fill="#4717B0"/>
<path d="M538.2 32.588C548.4 32.588 555.5 37.388 559.3 42.688V33.588H575.5V97.388H559.3V88.088C555.5 93.588 548.2 98.488 538.1 98.488C522 98.488 509.1 85.288 509.1 65.288C509.1 45.288 521.9 32.588 538.2 32.588ZM542.3 46.788C533.7 46.788 525.5 53.188 525.5 65.288C525.5 77.388 533.7 84.288 542.3 84.288C551.2 84.288 559.2 77.588 559.2 65.488C559.2 53.388 551.2 46.788 542.3 46.788Z" fill="#4717B0"/>
</svg>
