<svg width="400" height="300" viewBox="0 0 400 300" fill="none" xmlns="http://www.w3.org/2000/svg">
<path d="M87.66 237.55C87.86 237.063 88.0533 236.577 88.24 236.09C88.62 235.11 88.9867 234.127 89.34 233.14C90.5916 229.618 91.6597 226.033 92.54 222.4C93.5279 218.795 94.2235 215.117 94.62 211.4C94.62 211.62 94.41 213.03 94.53 212.06L94.63 211.28C94.6767 210.887 94.72 210.497 94.76 210.11C94.86 209.197 94.9467 208.283 95.02 207.37C95.1733 205.537 95.2833 203.703 95.35 201.87C95.478 198.129 95.4179 194.385 95.17 190.65C95.05 188.817 94.8833 186.987 94.67 185.16C94.67 184.78 94.58 184.39 94.53 184.01V183.68C94.3967 182.773 94.2533 181.867 94.1 180.96C93.5267 177.627 92.8 174.35 91.92 171.13L43.94 198.87C42.5928 199.651 41.4744 200.773 40.6971 202.123C39.9197 203.472 39.5105 205.003 39.5105 206.56C39.5105 208.117 39.9197 209.648 40.6971 210.997C41.4744 212.347 42.5928 213.469 43.94 214.25L86.94 239.11L87.51 237.85L87.66 237.55Z" fill="#96CF40"/>
<path d="M192.08 158.39L200.08 162.99C201.51 163.81 202.93 164.65 204.37 165.45L204.83 165.7L206.44 164.8L210.22 162.64C212.807 161.153 215.387 159.66 217.96 158.16C223.18 155.113 228.38 152.033 233.56 148.92C250.107 138.967 266.44 128.633 282.56 117.92L241.66 94.4C239.026 92.879 236.037 92.0782 232.995 92.0782C229.953 92.0782 226.965 92.879 224.33 94.4L152.77 135.83L175.77 149.04L192.08 158.39Z" fill="#96CF40"/>
<path d="M207.79 253.52C207.004 253.595 206.212 253.51 205.46 253.27C197.96 250.823 190.47 248.343 182.99 245.83C157.623 237.277 132.403 228.31 107.33 218.93C105.713 228.286 102.914 237.399 99 246.05L170.47 287.36C173.297 288.999 176.507 289.863 179.775 289.863C183.043 289.863 186.253 288.999 189.08 287.36L210.82 274.71C209.907 268.61 209.033 262.503 208.2 256.39C208.067 255.423 207.93 254.467 207.79 253.52Z" fill="#96CF40"/>
<path d="M108.94 204.86C115.913 207.473 122.913 210.057 129.94 212.61C155.14 221.797 180.473 230.563 205.94 238.91C203.5 218.863 201.53 198.767 200.03 178.62C199.563 178.433 199.097 178.227 198.63 178C195.85 176.66 193.22 175 190.54 173.42L182.08 168.57L165.6 159.12L139 143.85L104.18 164C104.713 165.727 105.2 167.463 105.64 169.21C108.555 180.855 109.668 192.878 108.94 204.86V204.86Z" fill="#96CF40"/>
<path d="M368.46 167.36L295.92 125.62C286.267 132.107 276.53 138.467 266.71 144.7C261.963 147.713 257.197 150.69 252.41 153.63C257.297 156.637 262.177 159.653 267.05 162.68C288.877 176.26 310.543 190.073 332.05 204.12L368.46 182.94C369.826 182.15 370.96 181.014 371.749 179.646C372.538 178.279 372.953 176.728 372.953 175.15C372.953 173.572 372.538 172.021 371.749 170.654C370.96 169.286 369.826 168.15 368.46 167.36V167.36Z" fill="#96CF40"/>
<path d="M239.17 161.69L235.42 163.94C230.16 167.073 224.877 170.17 219.57 173.23C217.57 174.36 215.67 175.54 213.69 176.65C214.183 183.537 214.733 190.42 215.34 197.3C216.513 210.573 217.9 223.823 219.5 237.05C219.9 240.337 220.31 243.62 220.73 246.9C220.95 248.627 221.177 250.35 221.41 252.07V252.25L221.54 253.18L221.88 255.64C222.413 259.513 222.967 263.387 223.54 267.26L318.74 211.88L315.95 210.06C290.563 193.62 264.97 177.497 239.17 161.69Z" fill="#96CF40"/>
<path d="M252.42 153.64C257.207 150.693 261.973 147.717 266.72 144.71C276.54 138.483 286.277 132.123 295.93 125.63L282.59 118C266.503 128.667 250.17 139 233.59 149C228.41 152.113 223.21 155.193 217.99 158.24C215.417 159.74 212.837 161.233 210.25 162.72L206.47 164.88L204.86 165.78L204.4 165.53C202.96 164.73 201.54 163.89 200.11 163.07L192.11 158.47L175.84 149.14L152.84 135.93L139.03 143.93L165.66 159.2L182.14 168.65L190.6 173.5C193.27 175.03 195.91 176.74 198.69 178.08C199.157 178.307 199.623 178.513 200.09 178.7C201.57 198.84 203.54 218.937 206 238.99C180.513 230.643 155.18 221.877 130 212.69C123 210.137 116 207.553 109 204.94C109.729 192.955 108.616 180.928 105.7 169.28C105.26 167.533 104.773 165.797 104.24 164.07L91.93 171.2C92.77 174.4 93.46 177.647 94 180.94C94.1533 181.847 94.2967 182.753 94.43 183.66V183.99C94.43 184.37 94.53 184.76 94.57 185.14C94.7833 186.967 94.95 188.797 95.07 190.63C95.3179 194.365 95.378 198.109 95.25 201.85C95.1833 203.69 95.0733 205.523 94.92 207.35C94.8467 208.263 94.76 209.177 94.66 210.09C94.62 210.483 94.5767 210.873 94.53 211.26L94.43 212.04C94.32 213.04 94.51 211.59 94.52 211.38C94.1235 215.097 93.4279 218.775 92.44 222.38C91.5597 226.013 90.4916 229.598 89.24 233.12C88.8867 234.107 88.52 235.09 88.14 236.07C87.9533 236.557 87.76 237.043 87.56 237.53L87.43 237.84L87 239.12L99 246.06C102.924 237.411 105.733 228.298 107.36 218.94C132.413 228.313 157.627 237.273 183 245.82C190.48 248.34 197.97 250.82 205.47 253.26C206.222 253.5 207.014 253.585 207.8 253.51C207.927 254.463 208.053 255.413 208.18 256.36C209.007 262.473 209.88 268.58 210.8 274.68L223.55 267.26C222.983 263.387 222.43 259.513 221.89 255.64L221.55 253.18L221.42 252.25V252.07C221.193 250.35 220.967 248.627 220.74 246.9C220.32 243.62 219.91 240.337 219.51 237.05C217.91 223.823 216.523 210.573 215.35 197.3C214.743 190.42 214.193 183.537 213.7 176.65C215.7 175.55 217.63 174.36 219.58 173.23C224.913 170.17 230.197 167.073 235.43 163.94L239.18 161.69C264.973 177.497 290.567 193.623 315.96 210.07L318.75 211.89L332.1 204.13C310.573 190.083 288.907 176.27 267.1 162.69C262.2 159.657 257.307 156.64 252.42 153.64Z" fill="#F8E6D2"/>
<path d="M211.78 40.74C212.096 40.4729 212.474 40.2898 212.88 40.2076C213.285 40.1254 213.705 40.1469 214.1 40.27C214.195 40.2963 214.295 40.3035 214.393 40.2913C214.491 40.2792 214.585 40.2478 214.671 40.1991C214.757 40.1503 214.833 40.0851 214.893 40.0072C214.954 39.9293 214.999 39.8402 215.025 39.745C215.051 39.6498 215.059 39.5503 215.046 39.4523C215.034 39.3543 215.003 39.2597 214.954 39.1738C214.905 39.0879 214.84 39.0124 214.762 38.9517C214.684 38.891 214.595 38.8463 214.5 38.82C213.85 38.6203 213.158 38.5947 212.495 38.7456C211.832 38.8965 211.22 39.2187 210.72 39.68C210.07 40.39 211.12 41.45 211.78 40.74Z" fill="#F7931E"/>
<path opacity="0.46" d="M104.08 214.69C114.894 214.69 123.66 212.881 123.66 210.65C123.66 208.419 114.894 206.61 104.08 206.61C93.2663 206.61 84.5 208.419 84.5 210.65C84.5 212.881 93.2663 214.69 104.08 214.69Z" fill="#8EC62C"/>
<path d="M104.36 211.71C101.107 208.176 98.0496 204.467 95.2 200.6C90.2 193.92 84.94 186.37 82.87 178.17C80.26 167.82 81.46 155.1 90.75 148.41C101.68 140.54 119.81 144.78 125.42 157.26C132.66 173.36 121.53 188.73 112.59 201.34C109.89 205.13 107.06 208.49 104.36 211.71Z" fill="#4717B0"/>
<path d="M104.71 181.29C111.575 181.29 117.14 175.725 117.14 168.86C117.14 161.995 111.575 156.43 104.71 156.43C97.8451 156.43 92.28 161.995 92.28 168.86C92.28 175.725 97.8451 181.29 104.71 181.29Z" fill="white"/>
<path d="M361.84 100.06C359.613 98.3056 356.995 97.1164 354.209 96.5939C351.422 96.0715 348.551 96.2314 345.84 97.06C325.36 102.81 325.08 131.57 325.08 131.57C325.08 131.57 317.64 126.09 306.83 133.5C293.42 142.69 296.34 166.4 296.34 166.4L300.56 168.84L378.88 122.55C378.88 122.55 373.8 105 361.84 100.06Z" fill="#20B086"/>
<path opacity="0.1" d="M361.84 100.06C359.613 98.3056 356.995 97.1164 354.209 96.5939C351.422 96.0715 348.551 96.2314 345.84 97.06C325.36 102.81 325.08 131.57 325.08 131.57C325.08 131.57 317.64 126.09 306.83 133.5C293.42 142.69 296.34 166.4 296.34 166.4L300.56 168.84L378.88 122.55C378.88 122.55 373.8 105 361.84 100.06Z" fill="black"/>
<path d="M300.57 168.86L378.89 122.57C378.89 122.57 370.55 93.77 350.06 99.57C329.57 105.37 329.31 134 329.31 134C329.31 134 321.87 128.52 311.06 135.93C297.65 145.15 300.57 168.86 300.57 168.86Z" fill="#20B086"/>
<path opacity="0.46" d="M190.49 176.99L233.64 148.92L274.21 137.13L281.25 140.21L211.25 188.61L190.49 176.99Z" fill="#8EC62C"/>
<path d="M263.26 46.16C263.26 45.9 265.47 48.5 265.92 50.88C266.37 53.26 265.41 60.26 264.59 61.05C263.77 61.84 260 62.86 260 62.86" fill="#42210B"/>
<path d="M246.81 28.42C245.36 33.78 244.07 39.17 242.73 44.56C242.299 45.8984 242.143 47.3098 242.27 48.71C242.713 50.4827 243.637 52.0987 244.94 53.38C247.89 56.7913 251.086 59.9831 254.5 62.93C255.26 63.689 256.194 64.2518 257.22 64.57C258.192 64.7189 259.184 64.6575 260.13 64.39C260.68 64.324 261.203 64.1174 261.65 63.79C262.167 63.2051 262.452 62.4508 262.45 61.67C263.21 54.82 263.18 47.91 263.37 41.01C263.43 38.7 263.51 36.3 262.57 34.18C261.548 32.0876 259.809 30.4308 257.67 29.51C254.14 27.87 250.67 26.19 246.57 25.38" fill="#42210B"/>
<path d="M224.61 47.76C222.68 46.76 221.67 44.76 219.91 43.55L219.8 43.47H219.65C219.425 43.4138 219.189 43.4245 218.97 43.5008C218.751 43.577 218.559 43.7155 218.418 43.8992C218.277 44.0829 218.192 44.3039 218.175 44.535C218.158 44.766 218.208 44.9972 218.32 45.2C218.802 46.0863 219.546 46.8022 220.45 47.25C220.524 47.382 220.624 47.4973 220.744 47.5886C220.865 47.6798 221.003 47.745 221.15 47.78C222.228 48.0678 223.284 48.4321 224.31 48.87C224.582 49.0167 224.899 49.055 225.198 48.977C225.497 48.8991 225.755 48.7107 225.92 48.45C226.069 48.1747 226.111 47.8546 226.04 47.55C225.865 47.7482 225.625 47.8781 225.363 47.9165C225.102 47.955 224.835 47.8995 224.61 47.76Z" fill="#AF5F43"/>
<path d="M224.71 51.23C224.02 49.62 223.43 47.98 222.78 46.36C222.37 45.95 221.98 45.51 221.58 45.08C221.49 45.0691 221.4 45.0691 221.31 45.08C221.141 45.0855 220.975 45.1304 220.826 45.2111C220.677 45.2917 220.549 45.406 220.452 45.5448C220.355 45.6836 220.292 45.843 220.267 46.0106C220.242 46.1781 220.257 46.3491 220.31 46.51L220.46 46.89C220.338 47.1881 220.338 47.5219 220.46 47.82C220.947 48.8667 221.44 49.9133 221.94 50.96C222.105 51.4764 222.341 51.9677 222.64 52.42L222.94 53.05C223.6 54.41 225.63 53.22 224.94 51.86L224.71 51.23Z" fill="#AF5F43"/>
<path d="M238.56 28.75L238.35 29.08C238.059 29.6866 237.725 30.2715 237.35 30.83C236.977 32.23 236.59 33.6267 236.19 35.02C235.41 37.73 235.45 40.85 233.92 43.3C232.07 46.3 228.06 45.77 225.25 44.66C224.52 44.37 223.77 44 223.01 43.66C222.72 47.66 222.65 51.92 224.22 55.66C227.537 56.833 231.044 57.3756 234.56 57.26C238.63 57.11 244.17 55.88 245.7 51.56L238.56 28.75Z" fill="#4717B0"/>
<path d="M238.12 36.27C237.44 41.67 238.12 47.42 235.87 52.52C235.141 54.1472 234.173 55.6571 233 57L232.8 57.22C237.62 57.11 239.45 56.41 239.45 56.41L238.69 32.61C238.54 33.04 238.24 34.04 237.84 35.41C237.958 35.5165 238.045 35.6519 238.094 35.8027C238.144 35.9536 238.152 36.1147 238.12 36.27V36.27Z" fill="#42210B"/>
<path d="M210.58 44.25L218.3 55.17L223.96 55.58L216.27 43.98L210.58 44.25Z" fill="#2D2D2D"/>
<path d="M212.78 42.25L218.13 42.81L226.53 54.55L223.96 55.58L217.12 46.09L210.58 44.25L212.78 42.25Z" fill="#606060"/>
<path d="M218.6 52.28H218.2C218.335 52.1061 218.419 51.8981 218.443 51.6792C218.467 51.4603 218.43 51.239 218.336 51.04C218.241 50.8409 218.094 50.672 217.909 50.552C217.725 50.4319 217.51 50.3655 217.29 50.36H216.36C216.546 50.1721 216.665 49.9287 216.699 49.6669C216.733 49.4051 216.681 49.1393 216.55 48.91C216.05 48.13 214 48.06 213.55 48.91C213.396 49.18 213.353 49.4997 213.432 49.8006C213.51 50.1015 213.704 50.3597 213.97 50.52L214.25 50.64C214.082 50.803 213.965 51.0117 213.914 51.2402C213.863 51.4688 213.88 51.7072 213.963 51.9262C214.046 52.1452 214.191 52.3351 214.381 52.4726C214.57 52.6101 214.796 52.6892 215.03 52.7H215.2C215.075 52.8782 215.003 53.0877 214.991 53.3048C214.978 53.522 215.027 53.7383 215.131 53.9294C215.235 54.1205 215.39 54.2789 215.579 54.3868C215.767 54.4946 215.983 54.5477 216.2 54.54C217.011 54.6202 217.826 54.6402 218.64 54.6C218.951 54.5948 219.248 54.4689 219.469 54.2487C219.689 54.0285 219.815 53.7313 219.82 53.42C219.807 53.1079 219.672 52.8134 219.443 52.6001C219.215 52.3868 218.912 52.2718 218.6 52.28V52.28Z" fill="#AF5F43"/>
<path d="M231.72 138.83C232.218 141.921 232.309 145.065 231.99 148.18C231.89 148.85 231.8 149.58 231.66 150.31L239.57 148.98V138.83H231.72Z" fill="#AF5F43"/>
<path d="M231.77 144.15C231.27 146.95 229.77 150.88 228.3 152.24C226.49 153.92 216.3 159.34 220.54 162.24C223.71 164.36 240.7 155.85 241.14 153.56C241.46 151.89 240.56 146.69 240.04 144C237.61 145.44 234.47 145.18 231.77 144.15Z" fill="#42210B"/>
<path d="M242.05 139.23C242.54 130.23 243.83 113.74 244.05 112.91C244.32 111.76 248.75 94.58 248.75 94.58C247.5 88.8 246.43 82.98 245.67 77.12C244.3 77 247.34 61.32 246 61C243.25 60.42 240.72 56.63 238.16 55.43C235.55 70.21 227.09 113.74 225.16 136.96C227.06 141.07 235.92 141.71 242.05 139.23Z" fill="#20B086"/>
<path d="M267.66 125.57C269.66 127.78 271.88 132.85 273.27 135.39C273.57 135.94 273.91 136.53 274.21 137.13L279.37 132.9L274.19 121.32L267.66 125.57Z" fill="#AF5F43"/>
<path d="M277.62 128.54C276.992 129.579 276.081 130.418 274.994 130.958C273.906 131.498 272.688 131.717 271.48 131.59C271.71 133.35 272.48 136.68 271.68 137.88C270.53 139.64 262.21 146.88 266.59 148.68C269.84 150 281.37 139.82 281.19 137.76C281.08 136.31 278.63 130.83 277.62 128.54Z" fill="#42210B"/>
<path d="M264.1 132.16C264.15 132.234 264.225 132.288 264.31 132.313C264.396 132.339 264.487 132.334 264.57 132.3C267.283 131.245 269.861 129.872 272.25 128.21C274.62 126.35 275.7 124.34 277.63 121.83L276.63 120.16C272.11 111.01 263.15 80.39 262.72 78.28C262.21 75.79 260.14 53.48 260.14 53.48L239.73 49.78C239.73 49.78 240.44 69.26 242.05 86.56C242.824 89.5909 243.769 92.5757 244.88 95.5C249.45 107.56 255.31 121.94 264.1 132.16V132.16Z" fill="#20B086"/>
<path d="M260.68 81.55C260.56 79.7354 260.316 77.9312 259.95 76.15C259.953 74.0743 259.795 72.0015 259.48 69.95C257.243 69.858 255.003 69.8914 252.77 70.05C252.77 71.16 252.77 72.28 252.7 73.39C252.447 74.2033 252.22 75.0267 252.02 75.86C251.88 75.9747 251.77 76.1225 251.7 76.29C250.667 78.3973 250.008 80.6675 249.75 83C249.759 83.2574 249.85 83.5051 250.011 83.7066C250.171 83.9081 250.392 84.0526 250.641 84.1187C250.89 84.1849 251.154 84.1692 251.393 84.074C251.632 83.9788 251.835 83.8091 251.97 83.59C252.31 82.8433 252.643 82.0867 252.97 81.32C252.97 82.36 252.97 83.4 252.97 84.44C252.98 84.7531 253.111 85.0503 253.334 85.27C253.557 85.4897 253.857 85.615 254.17 85.62C254.462 85.6426 254.754 85.5763 255.007 85.43C255.26 85.2836 255.464 85.064 255.59 84.8C255.772 85.0502 256.031 85.2338 256.327 85.3223C256.623 85.4109 256.941 85.3995 257.23 85.29C257.466 85.1707 257.675 85.0059 257.847 84.805C258.019 84.6042 258.149 84.3714 258.23 84.12C258.448 84.2315 258.69 84.2896 258.935 84.2896C259.18 84.2896 259.422 84.2315 259.64 84.12C260.64 83.6 260.74 82.53 260.68 81.55Z" fill="#AF5F43"/>
<path d="M257.92 34.92C255.99 30.73 248.92 27.49 246.19 26.34C245.35 26.34 244.49 26.41 243.64 26.51L242.58 26.71L241.8 26.85C241.413 26.9507 241.032 27.0742 240.66 27.22C240.14 27.5067 239.63 27.8167 239.13 28.15C239.048 28.2063 238.95 28.2344 238.85 28.23C238.403 28.57 238.006 28.9705 237.67 29.42C237.636 29.4658 237.596 29.5062 237.55 29.54C237.269 30.6283 237.118 31.7461 237.1 32.87C236.991 36.1173 237.044 39.368 237.26 42.61C237.51 46.9 237.9 51.19 238.16 55.48L238.6 57.54C243.01 61.08 250.68 62.14 251.32 62.02C251.96 61.9 251.32 68.02 250.9 72.38C252.461 72.7808 254.044 73.0946 255.64 73.32C256.78 73.48 257.93 73.59 259.08 73.64C259.77 73.64 260.47 73.64 261.17 73.64C264.28 55.39 260.35 40.18 257.92 34.92Z" fill="#4717B0"/>
<path d="M243.66 29.61C244.329 30.0031 245.085 30.2231 245.86 30.25C248.34 30.38 249.81 27.76 250.76 25.86C251.956 23.6432 252.64 21.1861 252.76 18.67C252.775 18.2612 252.725 17.8527 252.61 17.46C251.67 14.62 241.48 12.46 240.91 18.11C240.61 21.44 240.34 27.6 243.66 29.61Z" fill="#AF5F43"/>
<path d="M251.6 21.74C251.25 21.7204 250.899 21.7753 250.572 21.9011C250.244 22.0269 249.947 22.2208 249.7 22.47C249.158 22.9693 248.805 23.6404 248.7 24.37C248.666 24.5162 248.682 24.6695 248.745 24.8055C248.809 24.9415 248.916 25.0523 249.05 25.12C249.111 25.2235 249.193 25.3133 249.29 25.3836C249.388 25.454 249.498 25.5034 249.616 25.5287C249.733 25.5541 249.855 25.5549 249.972 25.531C250.09 25.5071 250.202 25.4591 250.3 25.39C250.984 24.9469 251.586 24.3886 252.08 23.74C252.53 23.07 252.6 21.92 251.6 21.74Z" fill="#FFC4B0"/>
<path d="M255.36 14.85C255.274 14.2414 255.058 13.6585 254.727 13.1408C254.396 12.6231 253.957 12.1829 253.44 11.85C252.869 11.4758 252.224 11.2301 251.549 11.13C250.874 11.0298 250.185 11.0776 249.53 11.27C249.033 10.4319 248.263 9.78947 247.35 9.45C246.515 9.1859 245.619 9.18015 244.781 9.43352C243.942 9.68689 243.199 10.1876 242.65 10.87C241.2 10.7265 239.744 11.079 238.52 11.87C237.89 12.3193 237.371 12.9072 237.003 13.5885C236.636 14.2698 236.429 15.0264 236.4 15.8C236.375 16.026 236.375 16.254 236.4 16.48C236.336 16.8808 236.336 17.2892 236.4 17.69C236.614 18.7013 237.167 19.6094 237.967 20.264C238.767 20.9186 239.766 21.2805 240.8 21.29C240.57 19.79 240.8 16.89 242.54 17.65C242.637 17.6527 242.733 17.6766 242.82 17.72C243.91 18.24 243 19.72 244.59 19.95C246.18 20.18 247.07 18.95 248.52 20.38C249.97 21.81 246.79 23.38 250.16 25.99C250.174 26.1778 250.197 26.3647 250.23 26.55C250.23 26.33 251.56 25.1 251.76 24.88C252.3 24.25 252.83 23.59 253.32 22.88C254.219 21.7747 254.929 20.5278 255.42 19.19C255.745 17.7591 255.725 16.2713 255.36 14.85V14.85Z" fill="#333333"/>
<path d="M251.28 23.71C251.43 22.71 250.67 22.16 249.88 22.58C249.296 22.9221 248.806 23.4052 248.457 23.9852C248.108 24.5652 247.909 25.2235 247.88 25.9C247.87 26.0339 247.889 26.1683 247.936 26.2943C247.983 26.4202 248.056 26.5347 248.15 26.63C248.187 26.7027 248.234 26.77 248.29 26.83C248.38 26.9218 248.489 26.9934 248.609 27.0401C248.729 27.0868 248.857 27.1075 248.986 27.1009C249.114 27.0943 249.24 27.0605 249.354 27.0017C249.469 26.9429 249.57 26.8606 249.65 26.76C250.52 25.9547 251.094 24.8806 251.28 23.71Z" fill="#AF5F43"/>
<path d="M242.58 22.36C242.26 22.3 239.24 21.2 239.24 21.2C239.24 21.2 239.13 24.2 240.72 24.89C242.31 25.58 242.58 22.36 242.58 22.36Z" stroke="#333333" stroke-width="0.75" stroke-miterlimit="10"/>
<path d="M244.16 22.86L247.69 24.07C247.69 24.07 247.69 27.07 245.38 26.56C243.07 26.05 244.16 22.86 244.16 22.86Z" stroke="#333333" stroke-width="0.75" stroke-miterlimit="10"/>
<path d="M249.31 22.45L247.64 23.92C247.43 24.11 247.74 24.41 247.95 24.22L249.62 22.75C249.84 22.57 249.52 22.27 249.31 22.45Z" fill="#333333"/>
<path d="M242.9 26.54C242.63 26.54 242.23 26.43 242.23 26.1C242.279 25.8921 242.36 25.6931 242.47 25.51C242.63 25.14 242.82 24.78 243.01 24.42C243.027 24.3709 243.027 24.3171 243.008 24.2683C242.99 24.2196 242.955 24.1789 242.909 24.1537C242.863 24.1285 242.81 24.1203 242.759 24.1306C242.708 24.1409 242.662 24.169 242.63 24.21C242.44 24.57 242.25 24.93 242.09 25.3C241.921 25.5821 241.809 25.8947 241.76 26.22C241.76 26.74 242.5 26.94 242.9 26.97C243.3 27 243.18 26.56 242.9 26.54Z" fill="#333333"/>
<path d="M244.3 22.68C243.67 22.5486 243.049 22.3783 242.44 22.17C242.18 22.08 242.07 22.5 242.34 22.59C242.949 22.7983 243.57 22.9686 244.2 23.1C244.47 23.16 244.57 22.73 244.3 22.68Z" fill="#333333"/>
<path d="M247.05 101.12C247.05 101.12 243.64 89.12 241.72 82.96L243.43 119.38C243.43 119.38 245.37 105.85 247.05 101.12Z" fill="#42210B"/>
<path d="M255.24 31.59C255.24 31.59 248.63 34.66 252.39 54.65C252.39 54.65 246.45 44.45 246.78 38.35C247.11 32.25 249.88 28.64 251.3 28.26C252.72 27.88 256 30.19 255.24 31.59Z" fill="#42210B"/>
<path d="M237.32 30C236.07 35.05 237.32 40.17 237.26 43.11C237.239 39.9788 237.575 36.8554 238.26 33.8C238.86 31.5 239.64 28.48 241.69 27.03C241.69 27.03 237.94 27.47 237.32 30Z" fill="#4717B0"/>
<path d="M209.69 38.76C210.88 36.81 213.18 36.76 215.04 37.71C215.89 38.16 216.65 36.87 215.8 36.41C213.2 35 210 35.34 208.39 38C207.89 38.83 209.18 39.58 209.69 38.76Z" fill="#F7931E"/>
<path d="M207.7 37C208.35 33.59 213.44 33.11 215.7 35.13C216.42 35.77 217.49 34.71 216.76 34.07C213.7 31.37 207.1 32.02 206.22 36.61C206.04 37.55 207.49 37.96 207.67 37.01L207.7 37Z" fill="#F7931E"/>
<path d="M183.51 80.76C182.631 80.069 181.599 79.6008 180.5 79.3953C179.401 79.1898 178.269 79.2532 177.2 79.58C169.12 81.84 169 93.19 169 93.19C169 93.19 166.07 91.03 161.81 93.95C156.52 97.58 157.67 106.95 157.67 106.95L159.33 107.95L190.21 89.7C190.21 89.7 188.23 82.72 183.51 80.76Z" fill="#20B086"/>
<path opacity="0.1" d="M183.51 80.76C182.631 80.069 181.599 79.6008 180.5 79.3953C179.401 79.1898 178.269 79.2532 177.2 79.58C169.12 81.84 169 93.19 169 93.19C169 93.19 166.07 91.03 161.81 93.95C156.52 97.58 157.67 106.95 157.67 106.95L159.33 107.95L190.21 89.7C190.21 89.7 188.23 82.72 183.51 80.76Z" fill="black"/>
<path d="M159.36 107.88L190.24 89.63C190.24 89.63 186.95 78.27 178.87 80.54C170.79 82.81 170.68 94.15 170.68 94.15C170.68 94.15 167.75 91.99 163.49 94.91C158.2 98.53 159.36 107.88 159.36 107.88Z" fill="#20B086"/>
<path d="M71.88 96.3C70.1695 94.9525 68.1581 94.0394 66.0178 93.6389C63.8775 93.2383 61.672 93.3622 59.59 94C43.87 98.41 43.66 120.48 43.66 120.48C43.66 120.48 37.95 116.27 29.66 121.96C19.37 129.01 21.66 147.2 21.66 147.2L24.9 149.08L84.99 113.56C84.99 113.56 81.05 100.12 71.88 96.3Z" fill="#20B086"/>
<path opacity="0.1" d="M71.88 96.3C70.1695 94.9525 68.1581 94.0394 66.0178 93.6389C63.8775 93.2383 61.672 93.3622 59.59 94C43.87 98.41 43.66 120.48 43.66 120.48C43.66 120.48 37.95 116.27 29.66 121.96C19.37 129.01 21.66 147.2 21.66 147.2L24.9 149.08L84.99 113.56C84.99 113.56 81.05 100.12 71.88 96.3Z" fill="black"/>
<path d="M24.87 149.08L85 113.56C85 113.56 78.6 91.46 62.88 95.87C47.16 100.28 46.95 122.35 46.95 122.35C46.95 122.35 41.24 118.14 32.95 123.83C22.62 130.89 24.87 149.08 24.87 149.08Z" fill="#20B086"/>
</svg>
