<svg width="259" height="247" viewBox="0 0 259 247" fill="none" xmlns="http://www.w3.org/2000/svg">
<path d="M257.98 219.56H0.5C0.367392 219.56 0.240214 219.507 0.146446 219.413C0.052678 219.32 0 219.192 0 219.06C0 218.927 0.052678 218.8 0.146446 218.706C0.240214 218.613 0.367392 218.56 0.5 218.56H257.98C258.113 218.56 258.24 218.613 258.334 218.706C258.427 218.8 258.48 218.927 258.48 219.06C258.48 219.192 258.427 219.32 258.334 219.413C258.24 219.507 258.113 219.56 257.98 219.56Z" fill="#D1D3D4"/>
<path d="M119.56 180.95C119.295 180.95 119.04 180.844 118.853 180.657C118.665 180.469 118.56 180.215 118.56 179.95V174.63C118.56 174.122 118.359 173.635 118.001 173.276C117.643 172.916 117.158 172.712 116.65 172.71H95.5C94.9925 172.712 94.5067 172.916 94.1488 173.276C93.7909 173.635 93.59 174.122 93.59 174.63V179.95C93.59 180.215 93.4847 180.469 93.2971 180.657C93.1096 180.844 92.8552 180.95 92.59 180.95C92.3248 180.95 92.0705 180.844 91.8829 180.657C91.6954 180.469 91.59 180.215 91.59 179.95V174.63C91.59 173.592 92.0016 172.596 92.7346 171.861C93.4676 171.127 94.4621 170.712 95.5 170.71H116.65C117.688 170.712 118.682 171.127 119.415 171.861C120.148 172.596 120.56 173.592 120.56 174.63V179.95C120.56 180.215 120.455 180.469 120.267 180.657C120.08 180.844 119.825 180.95 119.56 180.95Z" fill="#983729"/>
<path d="M144.2 179.95H67.96C65.2814 179.95 63.11 182.121 63.11 184.8V235.69C63.11 238.368 65.2814 240.54 67.96 240.54H144.2C146.879 240.54 149.05 238.368 149.05 235.69V184.8C149.05 182.121 146.879 179.95 144.2 179.95Z" fill="#983729"/>
<path d="M144.24 241.05H67.96C66.5419 241.047 65.1826 240.483 64.1799 239.48C63.1771 238.477 62.6126 237.118 62.61 235.7V184.8C62.6126 183.382 63.1771 182.022 64.1799 181.02C65.1826 180.017 66.5419 179.452 67.96 179.45H144.24C145.658 179.452 147.017 180.017 148.02 181.02C149.023 182.022 149.587 183.382 149.59 184.8V235.7C149.587 237.118 149.023 238.477 148.02 239.48C147.017 240.483 145.658 241.047 144.24 241.05V241.05ZM68.01 180.45C66.8571 180.452 65.7522 180.912 64.937 181.727C64.1218 182.542 63.6626 183.647 63.66 184.8V235.7C63.66 236.854 64.1183 237.96 64.9341 238.776C65.7499 239.592 66.8563 240.05 68.01 240.05H144.24C145.394 240.05 146.5 239.592 147.316 238.776C148.132 237.96 148.59 236.854 148.59 235.7V184.8C148.587 183.647 148.128 182.542 147.313 181.727C146.498 180.912 145.393 180.452 144.24 180.45H68.01Z" fill="#782A1F"/>
<path d="M85.61 178.5H83.89C82.813 178.5 81.94 179.373 81.94 180.45V240.05C81.94 241.127 82.813 242 83.89 242H85.61C86.687 242 87.56 241.127 87.56 240.05V180.45C87.56 179.373 86.687 178.5 85.61 178.5Z" fill="#F97E4F"/>
<path d="M85.61 242.5H83.89C83.2402 242.5 82.6171 242.242 82.1576 241.782C81.6981 241.323 81.44 240.7 81.44 240.05V180.45C81.44 179.8 81.6981 179.177 82.1576 178.717C82.6171 178.258 83.2402 178 83.89 178H85.61C86.2598 178 86.883 178.258 87.3424 178.717C87.8019 179.177 88.06 179.8 88.06 180.45V240.05C88.06 240.7 87.8019 241.323 87.3424 241.782C86.883 242.242 86.2598 242.5 85.61 242.5ZM83.89 179C83.5054 179 83.1366 179.153 82.8647 179.425C82.5928 179.696 82.44 180.065 82.44 180.45V240.05C82.44 240.434 82.5928 240.803 82.8647 241.075C83.1366 241.347 83.5054 241.5 83.89 241.5H85.61C85.9946 241.5 86.3634 241.347 86.6353 241.075C86.9072 240.803 87.06 240.434 87.06 240.05V180.45C87.06 180.065 86.9072 179.696 86.6353 179.425C86.3634 179.153 85.9946 179 85.61 179H83.89Z" fill="#43464B"/>
<path d="M129.33 178.5H127.61C126.533 178.5 125.66 179.373 125.66 180.45V240.05C125.66 241.127 126.533 242 127.61 242H129.33C130.407 242 131.28 241.127 131.28 240.05V180.45C131.28 179.373 130.407 178.5 129.33 178.5Z" fill="#F97E4F"/>
<path d="M129.33 242.5H127.61C126.96 242.5 126.337 242.242 125.878 241.782C125.418 241.323 125.16 240.7 125.16 240.05V180.45C125.16 179.8 125.418 179.177 125.878 178.717C126.337 178.258 126.96 178 127.61 178H129.33C129.98 178 130.603 178.258 131.062 178.717C131.522 179.177 131.78 179.8 131.78 180.45V240.05C131.78 240.7 131.522 241.323 131.062 241.782C130.603 242.242 129.98 242.5 129.33 242.5ZM127.61 179C127.225 179 126.857 179.153 126.585 179.425C126.313 179.696 126.16 180.065 126.16 180.45V240.05C126.16 240.434 126.313 240.803 126.585 241.075C126.857 241.347 127.225 241.5 127.61 241.5H129.33C129.715 241.5 130.083 241.347 130.355 241.075C130.627 240.803 130.78 240.434 130.78 240.05V180.45C130.78 180.065 130.627 179.696 130.355 179.425C130.083 179.153 129.715 179 129.33 179H127.61Z" fill="#43464B"/>
<path d="M102.25 216.54C105.453 216.54 108.05 213.943 108.05 210.74C108.05 207.537 105.453 204.94 102.25 204.94C99.0467 204.94 96.45 207.537 96.45 210.74C96.45 213.943 99.0467 216.54 102.25 216.54Z" fill="#91C796"/>
<path d="M102.24 217.05C100.992 217.05 99.772 216.68 98.7343 215.986C97.6967 215.293 96.8879 214.308 96.4103 213.155C95.9327 212.002 95.8078 210.733 96.0512 209.509C96.2947 208.285 96.8957 207.16 97.7782 206.278C98.6606 205.395 99.785 204.795 101.009 204.551C102.233 204.308 103.502 204.433 104.655 204.91C105.808 205.388 106.793 206.197 107.487 207.234C108.18 208.272 108.55 209.492 108.55 210.74C108.55 211.568 108.387 212.389 108.07 213.155C107.753 213.92 107.288 214.616 106.702 215.202C106.116 215.788 105.42 216.252 104.655 216.57C103.889 216.887 103.069 217.05 102.24 217.05V217.05ZM102.24 205.44C101.189 205.44 100.162 205.752 99.2889 206.335C98.4154 206.919 97.7348 207.749 97.3332 208.72C96.9316 209.691 96.8271 210.759 97.0328 211.789C97.2385 212.82 97.7452 213.766 98.4888 214.508C99.2324 215.25 100.18 215.755 101.21 215.959C102.241 216.163 103.309 216.056 104.279 215.653C105.249 215.249 106.078 214.567 106.66 213.693C107.242 212.818 107.552 211.79 107.55 210.74C107.547 209.333 106.987 207.985 105.991 206.992C104.996 205.998 103.647 205.44 102.24 205.44V205.44Z" fill="#C7C7C7"/>
<path d="M118.437 216.32L101.157 223.009L104.757 232.309L122.037 225.62L118.437 216.32Z" fill="#FDE4A9"/>
<path d="M104.42 234.79C104.319 234.789 104.22 234.758 104.136 234.701C104.053 234.644 103.988 234.564 103.95 234.47L100.4 225.12C100.373 225.06 100.359 224.995 100.359 224.93C100.359 224.864 100.373 224.8 100.4 224.74C100.426 224.678 100.465 224.623 100.513 224.576C100.561 224.53 100.618 224.494 100.68 224.47L118.04 217.87C118.163 217.824 118.3 217.829 118.42 217.883C118.539 217.938 118.633 218.037 118.68 218.16L122.24 227.51C122.29 227.632 122.29 227.768 122.24 227.89C122.184 228.009 122.083 228.103 121.96 228.15L104.6 234.76L104.42 234.79ZM101.51 225.22L104.71 233.64L121.14 227.39L117.94 218.97L101.51 225.22Z" fill="#F5DB9D"/>
<path d="M121.58 199.13L107.68 202.04L104.77 188.15L121.58 199.13Z" fill="#82D1E0"/>
<path d="M107.68 202.54C107.566 202.54 107.455 202.502 107.366 202.431C107.277 202.36 107.215 202.261 107.19 202.15L104.24 188.22C104.22 188.122 104.23 188.021 104.267 187.928C104.304 187.836 104.368 187.756 104.45 187.7C104.532 187.646 104.627 187.617 104.725 187.617C104.823 187.617 104.918 187.646 105 187.7L121.81 198.7C121.893 198.754 121.959 198.831 121.998 198.922C122.038 199.013 122.049 199.114 122.031 199.212C122.012 199.31 121.966 199.4 121.896 199.47C121.826 199.541 121.737 199.59 121.64 199.61L107.74 202.52L107.68 202.54ZM105.51 189.22L108.07 201.44L120.3 198.88L105.51 189.22Z" fill="#CECECE"/>
<path d="M229.47 238.24L225.13 241.98L221.64 239.42L220.08 226.81L229.3 224.8L229.47 238.24Z" fill="white"/>
<path d="M229.3 224.8L229.47 238.24L225.13 241.98L221.64 239.42L220.08 226.81L229.3 224.81V224.8ZM229.3 223.81C229.23 223.8 229.16 223.8 229.09 223.81L219.87 225.81C219.626 225.863 219.411 226.005 219.267 226.209C219.122 226.412 219.059 226.662 219.09 226.91L220.65 239.52C220.667 239.654 220.711 239.784 220.78 239.901C220.849 240.018 220.941 240.12 221.05 240.2L224.54 242.76C224.71 242.888 224.917 242.958 225.13 242.96C225.373 242.959 225.608 242.871 225.79 242.71L230.12 238.98C230.231 238.885 230.32 238.767 230.38 238.634C230.441 238.501 230.471 238.356 230.47 238.21L230.3 224.77C230.3 224.505 230.195 224.25 230.007 224.063C229.82 223.875 229.565 223.77 229.3 223.77V223.81Z" fill="#231F20"/>
<path d="M230.24 237.44C230.24 237.44 224.83 241.25 220.92 238.12C220.92 238.12 208.05 236.97 206.59 245.77H230.39L230.24 237.44Z" fill="#4717B0"/>
<path d="M230.34 246.27H206.54C206.467 246.272 206.394 246.257 206.328 246.226C206.262 246.194 206.204 246.148 206.16 246.09C206.112 246.036 206.076 245.972 206.057 245.903C206.038 245.833 206.036 245.76 206.05 245.69C207.57 236.54 220.78 237.62 220.91 237.63C221.008 237.641 221.102 237.679 221.18 237.74C224.75 240.59 229.85 237.07 229.91 237.03C229.984 236.98 230.071 236.95 230.16 236.945C230.249 236.939 230.339 236.958 230.418 236.999C230.498 237.04 230.565 237.101 230.613 237.177C230.661 237.253 230.687 237.34 230.69 237.43L230.84 245.76C230.842 245.827 230.829 245.894 230.803 245.956C230.777 246.018 230.739 246.074 230.69 246.12C230.645 246.168 230.591 246.206 230.531 246.232C230.471 246.258 230.406 246.271 230.34 246.27V246.27ZM207.15 245.27H229.83L229.71 238.32C228.03 239.32 223.95 241.1 220.71 238.61C219.33 238.53 208.88 238.12 207.15 245.27Z" fill="#4717B0"/>
<path d="M185.01 238.24L181.21 241.98L177.72 239.42L176.16 226.81L186.42 224.8L185.01 238.24Z" fill="white"/>
<path d="M186.42 224.8L185.01 238.22L181.21 241.96L177.72 239.4L176.16 226.79L186.42 224.79V224.8ZM186.42 223.79H186.22L175.97 225.79C175.722 225.838 175.503 225.979 175.354 226.183C175.206 226.387 175.14 226.639 175.17 226.89L176.72 239.5C176.738 239.635 176.784 239.765 176.855 239.882C176.925 239.999 177.019 240.1 177.13 240.18L180.62 242.74C180.79 242.868 180.997 242.938 181.21 242.94C181.472 242.939 181.724 242.835 181.91 242.65L185.71 238.92C185.878 238.758 185.984 238.542 186.01 238.31L187.41 224.87C187.426 224.715 187.405 224.558 187.35 224.412C187.294 224.266 187.205 224.135 187.09 224.03C186.908 223.859 186.669 223.763 186.42 223.76V223.79Z" fill="#231F20"/>
<path d="M226.39 118.8L231.55 231.47L217.93 231.33L199.33 155.78L188.9 231.04L173.81 230.89L169.08 120.08L226.39 118.8Z" fill="#4717B0"/>
<path d="M231.55 231.96L217.93 231.83C217.82 231.827 217.713 231.788 217.627 231.72C217.54 231.651 217.478 231.557 217.45 231.45L199.45 158.45L189.38 231.15C189.361 231.269 189.3 231.378 189.209 231.457C189.117 231.535 189.001 231.579 188.88 231.58L173.78 231.43C173.653 231.427 173.531 231.376 173.44 231.287C173.349 231.198 173.295 231.077 173.29 230.95L168.56 120.14C168.555 120.074 168.564 120.008 168.587 119.946C168.609 119.884 168.644 119.827 168.69 119.78C168.734 119.73 168.788 119.691 168.848 119.663C168.908 119.636 168.974 119.621 169.04 119.62L226.36 118.34C226.487 118.342 226.609 118.393 226.7 118.483C226.791 118.572 226.845 118.692 226.85 118.82L232.02 231.48C232.025 231.548 232.015 231.616 231.991 231.68C231.967 231.744 231.929 231.802 231.88 231.85C231.788 231.926 231.67 231.966 231.55 231.96V231.96ZM218.32 230.83L231.03 230.96L225.91 119.31L169.59 120.56L174.29 230.4L188.47 230.54L198.84 155.71C198.854 155.594 198.909 155.487 198.996 155.408C199.082 155.329 199.193 155.284 199.31 155.28C199.426 155.274 199.54 155.309 199.633 155.378C199.726 155.448 199.792 155.547 199.82 155.66L218.32 230.83Z" fill="#4717B0"/>
<path d="M193.81 29.6998C201.829 29.6998 208.33 23.199 208.33 15.1798C208.33 7.16064 201.829 0.659821 193.81 0.659821C185.791 0.659821 179.29 7.16064 179.29 15.1798C179.29 23.199 185.791 29.6998 193.81 29.6998Z" fill="#4717B0"/>
<path d="M193.81 30.2198H193.66C189.659 30.2 185.829 28.5941 183.011 25.7545C180.192 22.9149 178.615 19.0734 178.625 15.0725C178.635 11.0716 180.231 7.23793 183.064 4.41237C185.896 1.5868 189.734 0 193.735 0C197.736 0 201.574 1.5868 204.406 4.41237C207.239 7.23793 208.835 11.0716 208.845 15.0725C208.855 19.0734 207.278 22.9149 204.459 25.7545C201.641 28.5941 197.811 30.2 193.81 30.2198ZM193.81 1.21981C191.972 1.21128 190.149 1.56495 188.447 2.26063C186.746 2.95631 185.198 3.98037 183.891 5.27436C182.585 6.56834 181.547 8.1069 180.836 9.80219C180.124 11.4975 179.754 13.3163 179.745 15.1548C179.736 16.9933 180.09 18.8155 180.786 20.5173C181.481 22.2192 182.506 23.7673 183.8 25.0733C185.094 26.3794 186.632 27.4178 188.327 28.1293C190.023 28.8407 191.842 29.2113 193.68 29.2198H193.82C197.533 29.2384 201.101 27.7812 203.74 25.1688C206.379 22.5564 207.871 19.0028 207.89 15.2898C207.909 11.5768 206.451 8.00845 203.839 5.36982C201.227 2.73118 197.673 1.23838 193.96 1.21981H193.81Z" fill="#231F20"/>
<path d="M212.809 20.5446C213.904 15.5717 206.17 9.64143 195.534 7.29902C184.897 4.95662 175.387 7.08905 174.292 12.0619C173.197 17.0348 180.931 22.9651 191.568 25.3075C202.204 27.6499 211.714 25.5175 212.809 20.5446Z" fill="#4717B0"/>
<path d="M200.05 26.7798C197.163 26.7534 194.286 26.4181 191.47 25.7798C180.4 23.3398 172.64 17.2598 173.81 11.9398C174.98 6.61982 184.58 4.35982 195.65 6.78982C206.72 9.21982 214.48 15.3198 213.3 20.6398C212.45 24.5298 207.14 26.7798 200.05 26.7798ZM187.05 6.83982C180.47 6.83982 175.5 8.83982 174.76 12.1698C173.76 16.8698 181.3 22.5498 191.65 24.8298C202 27.1098 211.27 25.1398 212.3 20.4398C213.3 15.7498 205.76 10.0698 195.41 7.78982C192.676 7.17406 189.883 6.85554 187.08 6.83982H187.05Z" fill="#231F20"/>
<path d="M178.94 15.5998C179.07 15.2298 179.22 14.8598 179.37 14.4998C181.15 10.4198 188.1 10.1698 191.84 10.4298C195.355 10.5634 198.778 11.5963 201.78 13.4298C204.13 14.9798 206.61 17.7898 206.86 20.7398C207.11 23.6898 206.02 27.4198 205.08 30.1498C204.598 31.8165 203.712 33.3382 202.5 34.5798C201.179 35.6489 199.623 36.3892 197.96 36.7398C194.44 37.6898 190.65 38.1398 187.17 37.0298C183.69 35.9198 180 32.8198 178.95 29.0898C177.575 24.6987 177.572 19.9929 178.94 15.5998V15.5998Z" fill="white"/>
<path d="M191.6 38.2198C190.048 38.2305 188.504 38.0046 187.02 37.5498C183.02 36.2698 179.46 32.8598 178.45 29.2498C177.44 25.6398 176.67 20.5498 178.45 15.4798C178.58 15.0998 178.73 14.7198 178.89 14.3498C180.96 9.57981 189.35 9.78981 191.89 9.96981C195.492 10.0697 199.007 11.1035 202.09 12.9698C204.36 14.4698 207.09 17.3798 207.4 20.6598C207.6 22.9898 206.99 26.2298 205.58 30.2898C205.071 32.0354 204.14 33.6289 202.87 34.9298C201.48 36.06 199.842 36.8448 198.09 37.2198C195.98 37.837 193.798 38.1733 191.6 38.2198ZM179.43 15.8198C177.74 20.6398 178.5 25.6298 179.43 28.9698C180.36 32.3098 183.6 35.3798 187.32 36.5598C190.22 37.4798 193.66 37.3798 197.81 36.2598C199.391 35.9352 200.876 35.2509 202.15 34.2598C203.295 33.0749 204.13 31.6252 204.58 30.0398C205.94 26.1198 206.53 23.0398 206.34 20.8398C206.11 18.1098 203.73 15.3998 201.49 13.9198C198.562 12.1325 195.219 11.1398 191.79 11.0398C189.44 10.8698 181.64 10.6498 179.84 14.7998C179.69 15.1498 179.55 15.4998 179.42 15.8598L179.43 15.8198Z" fill="#231F20"/>
<path d="M223.59 75.6598L232.44 65.3798C226.37 54.9198 220.03 48.9498 215.83 46.7698C210.38 42.9998 197.83 43.7698 186.21 44.4098C182.505 44.506 178.837 45.1809 175.34 46.4098C162.21 51.3198 151.44 71.9098 151.44 71.9098L164.12 78.0198C164.12 78.0198 163.85 118.44 166.39 127.25C166.39 127.25 202.66 133.03 228.23 123.34C228.24 123.38 223.58 79.1098 223.59 75.6598Z" fill="#20B086"/>
<path d="M185.84 39.0498L186.63 47.8898C186.63 47.8898 190.15 52.8898 195.57 50.5698C197.164 49.8828 198.585 48.8485 199.729 47.5423C200.872 46.2361 201.71 44.691 202.18 43.0198L199.53 27.1398C199.53 27.1398 194.99 25.5898 194.74 16.3198C190.457 19.0503 185.517 20.577 180.44 20.7398C180.44 20.7398 179.44 30.9898 180.87 35.2398C182.3 39.4898 185.84 39.0498 185.84 39.0498Z" fill="white"/>
<path d="M192.76 51.6898C188.76 51.6898 186.24 48.2298 186.21 48.1898C186.161 48.1146 186.13 48.029 186.12 47.9398L185.37 39.5698C184.23 39.5698 181.55 38.9898 180.37 35.3998C178.96 31.0998 179.87 21.1098 179.91 20.6898C179.924 20.5649 179.982 20.4491 180.074 20.363C180.165 20.2769 180.284 20.2261 180.41 20.2198C185.377 20.0479 190.209 18.5569 194.41 15.8998C194.49 15.8512 194.582 15.8256 194.675 15.8256C194.768 15.8256 194.86 15.8512 194.94 15.8998C195.024 15.9423 195.095 16.0064 195.146 16.0855C195.197 16.1646 195.226 16.2558 195.23 16.3498C195.46 25.0798 199.63 26.6798 199.67 26.6898C199.758 26.7194 199.836 26.7723 199.895 26.8427C199.955 26.9132 199.995 26.9986 200.01 27.0898L202.66 42.9798C202.675 43.0457 202.675 43.114 202.66 43.1798C202.177 44.9331 201.305 46.5549 200.109 47.9244C198.912 49.2939 197.423 50.3759 195.75 51.0898C194.803 51.4854 193.786 51.6893 192.76 51.6898V51.6898ZM187.14 47.6898C187.68 48.3898 190.78 52.0198 195.36 50.0898C196.863 49.4369 198.205 48.4631 199.291 47.2365C200.378 46.01 201.183 44.5605 201.65 42.9898L199.07 27.4898C198.07 26.9798 194.71 24.7498 194.27 17.2298C190.206 19.6237 185.621 20.9963 180.91 21.2298C180.75 23.2298 180.18 31.4798 181.36 35.0798C182.59 38.8598 185.65 38.5598 185.78 38.5398C185.919 38.5245 186.059 38.5639 186.17 38.6498C186.273 38.744 186.341 38.8713 186.36 39.0098L187.14 47.6898Z" fill="#231F20"/>
<path d="M196.18 27.3998C196.25 26.5956 196.576 25.8349 197.11 25.2298C197.635 24.6919 198.247 24.2458 198.92 23.9098C199.272 23.6914 199.668 23.5548 200.08 23.5098C200.371 23.5036 200.661 23.5581 200.93 23.6698C201.585 23.8703 202.148 24.2952 202.52 24.8698C202.755 25.3694 202.868 25.9179 202.85 26.4698C202.881 27.0672 202.83 27.666 202.7 28.2498C202.555 28.8303 202.297 29.3764 201.94 29.8566C201.583 30.3367 201.135 30.7414 200.621 31.0473C200.106 31.3532 199.537 31.5542 198.945 31.6387C198.352 31.7233 197.749 31.6896 197.17 31.5398" fill="white"/>
<path d="M198.3 32.2198C197.872 32.2211 197.445 32.1673 197.03 32.0598C196.965 32.0425 196.904 32.0123 196.85 31.9711C196.797 31.93 196.752 31.8786 196.718 31.82C196.685 31.7614 196.663 31.6967 196.655 31.6298C196.647 31.5628 196.652 31.4948 196.67 31.4298C196.705 31.2977 196.791 31.1848 196.909 31.1155C197.027 31.0463 197.167 31.0263 197.3 31.0598C197.812 31.1933 198.345 31.224 198.868 31.1502C199.392 31.0764 199.895 30.8995 200.35 30.6298C201.286 30.0796 201.966 29.1806 202.24 28.1298C202.356 27.5879 202.403 27.0335 202.38 26.4798C202.39 26.0122 202.298 25.5481 202.11 25.1198C201.798 24.6451 201.332 24.2921 200.79 24.1198C200.584 24.033 200.363 23.9887 200.14 23.9898C199.808 24.0351 199.49 24.1547 199.21 24.3398C198.588 24.6407 198.023 25.0467 197.54 25.5398C197.076 26.0592 196.795 26.7159 196.74 27.4098C196.725 27.5451 196.658 27.6693 196.554 27.7568C196.45 27.8443 196.316 27.8884 196.18 27.8798C196.113 27.8748 196.048 27.8565 195.988 27.8261C195.928 27.7957 195.874 27.7537 195.831 27.7026C195.787 27.6515 195.754 27.5922 195.733 27.5282C195.712 27.4643 195.705 27.3968 195.71 27.3298C195.784 26.4098 196.156 25.5391 196.77 24.8498C197.332 24.2663 197.992 23.7857 198.72 23.4298C199.133 23.1661 199.602 23.005 200.09 22.9598C200.449 22.9599 200.804 23.0242 201.14 23.1498C201.916 23.3903 202.579 23.9013 203.01 24.5898C203.284 25.1639 203.421 25.7938 203.41 26.4298C203.438 27.0745 203.381 27.72 203.24 28.3498C202.974 29.4459 202.345 30.4198 201.455 31.1133C200.566 31.8068 199.468 32.1791 198.34 32.1698L198.3 32.2198Z" fill="#231F20"/>
<path d="M186.44 43.4098C187.498 43.3583 188.533 43.0808 189.474 42.5961C190.416 42.1115 191.243 41.4308 191.9 40.5998C193.99 37.7998 193.55 36.4498 193.55 36.4498C193.55 36.4498 189.91 39.2898 186.09 39.1498L186.44 43.4098Z" fill="#231F20"/>
<path d="M186.44 43.9098C186.314 43.9102 186.193 43.8631 186.1 43.7778C186.007 43.6925 185.95 43.5754 185.94 43.4498L185.6 39.2198C185.595 39.151 185.605 39.082 185.627 39.0168C185.649 38.9515 185.684 38.8914 185.73 38.8398C185.777 38.786 185.836 38.7436 185.902 38.7159C185.967 38.6882 186.039 38.6758 186.11 38.6798C189.69 38.8098 193.21 36.1098 193.25 36.0798C193.312 36.0301 193.386 35.9968 193.465 35.9828C193.543 35.9688 193.624 35.9747 193.7 35.9998C193.776 36.0243 193.845 36.0659 193.902 36.1214C193.96 36.1769 194.003 36.2447 194.03 36.3198C194.03 36.4898 194.48 37.9998 192.3 40.9198C191.597 41.8128 190.71 42.5433 189.698 43.0611C188.687 43.5789 187.575 43.8718 186.44 43.9198V43.9098ZM186.63 39.6498L186.89 42.8798C187.79 42.7737 188.661 42.4912 189.452 42.0485C190.243 41.6058 190.939 41.0116 191.5 40.2998C192.191 39.4544 192.705 38.4783 193.01 37.4298C191.109 38.7053 188.912 39.4699 186.63 39.6498V39.6498Z" fill="#231F20"/>
<path d="M187.05 25.0998C187.05 25.0998 184.65 29.8998 185.45 30.5798C186.25 31.2598 188.16 30.5098 188.16 30.5098" fill="white"/>
<path d="M186.44 31.3698C185.97 31.3948 185.506 31.2532 185.13 30.9698C184.22 30.1898 185.43 27.2298 186.61 24.8798C186.634 24.8131 186.671 24.7522 186.72 24.7011C186.769 24.6499 186.828 24.6097 186.893 24.583C186.959 24.5564 187.029 24.544 187.1 24.5466C187.17 24.5491 187.24 24.5667 187.303 24.598C187.366 24.6293 187.422 24.6738 187.467 24.7283C187.512 24.7829 187.545 24.8464 187.564 24.9146C187.582 24.9828 187.586 25.0542 187.575 25.1241C187.564 25.1939 187.539 25.2606 187.5 25.3198C186.4 27.5198 185.61 29.8198 185.81 30.2398C186.16 30.5298 187.3 30.3098 187.98 30.0398C188.041 30.0155 188.106 30.0035 188.172 30.0044C188.238 30.0053 188.303 30.0192 188.363 30.0452C188.423 30.0712 188.478 30.1088 188.524 30.156C188.57 30.2031 188.606 30.2588 188.63 30.3198C188.654 30.3809 188.666 30.4461 188.665 30.5118C188.664 30.5776 188.651 30.6425 188.625 30.7028C188.599 30.7632 188.561 30.8178 188.514 30.8636C188.467 30.9094 188.411 30.9455 188.35 30.9698C187.741 31.2108 187.095 31.3461 186.44 31.3698V31.3698Z" fill="#231F20"/>
<path d="M187.93 33.7698C187.93 33.7698 191.37 34.4198 191.86 31.1098Z" fill="white"/>
<path d="M188.61 34.3198C188.352 34.3187 188.095 34.2986 187.84 34.2598C187.774 34.2473 187.712 34.2221 187.656 34.1854C187.6 34.1487 187.552 34.1014 187.514 34.0462C187.477 33.9909 187.45 33.9288 187.437 33.8634C187.423 33.798 187.423 33.7305 187.435 33.6648C187.447 33.5992 187.473 33.5366 187.509 33.4807C187.546 33.4248 187.593 33.3767 187.649 33.3391C187.704 33.3015 187.766 33.2751 187.831 33.2615C187.897 33.2479 187.964 33.2473 188.03 33.2598C188.845 33.4002 189.684 33.2403 190.39 32.8098C190.672 32.5978 190.907 32.3289 191.079 32.0207C191.252 31.7124 191.357 31.3714 191.39 31.0198C191.41 30.8872 191.482 30.7679 191.589 30.6882C191.697 30.6085 191.832 30.5749 191.965 30.5948C192.098 30.6147 192.217 30.6865 192.297 30.7943C192.376 30.9021 192.41 31.0372 192.39 31.1698C192.343 31.6552 192.193 32.1252 191.952 32.549C191.711 32.9729 191.383 33.3412 190.99 33.6298C190.288 34.1022 189.456 34.3435 188.61 34.3198V34.3198Z" fill="#231F20"/>
<path d="M192.789 24.402C192.84 23.8298 192.551 23.3369 192.144 23.301C191.737 23.2651 191.366 23.6998 191.315 24.272C191.265 24.8441 191.554 25.337 191.961 25.3729C192.368 25.4088 192.739 24.9741 192.789 24.402Z" fill="#231F20"/>
<path d="M185.078 25.4327C185.129 24.8605 184.839 24.3676 184.432 24.3317C184.025 24.2958 183.654 24.7305 183.604 25.3026C183.553 25.8748 183.842 26.3677 184.25 26.4036C184.657 26.4395 185.028 26.0048 185.078 25.4327Z" fill="#231F20"/>
<path d="M192.01 63.4698L169.47 70.0798L148.09 64.5798L128.03 69.6598L106 63.3798L129.69 118.27L148.48 123.24L164.18 117.14L180.86 123.56L194.79 118.92L192.01 63.4698Z" fill="#65C4EE"/>
<path d="M106 63.3798L128 69.6598L148.06 64.5798L169.44 70.0798L191.98 63.4698L194.76 118.92L180.83 123.56L164.15 117.14L148.45 123.24L129.66 118.24L106 63.3798ZM106 62.3798C105.858 62.38 105.718 62.4104 105.588 62.469C105.459 62.5277 105.344 62.6131 105.25 62.7198C105.124 62.8621 105.041 63.0373 105.011 63.2251C104.981 63.4128 105.005 63.6052 105.08 63.7798L128.77 118.67C128.831 118.81 128.923 118.934 129.039 119.032C129.155 119.131 129.292 119.202 129.44 119.24L148.24 124.22C148.323 124.23 148.407 124.23 148.49 124.22C148.617 124.222 148.743 124.198 148.86 124.15L164.18 118.22L180.5 124.5C180.616 124.539 180.738 124.559 180.86 124.56C180.969 124.564 181.077 124.547 181.18 124.51L195.11 119.87C195.317 119.8 195.495 119.665 195.618 119.484C195.741 119.304 195.801 119.088 195.79 118.87L193.01 63.4198C193.002 63.2697 192.959 63.1234 192.887 62.9919C192.814 62.8603 192.713 62.7468 192.59 62.6598C192.42 62.5405 192.218 62.4743 192.01 62.4698C191.917 62.4594 191.823 62.4594 191.73 62.4698L169.45 68.9998L148.34 63.6198C148.257 63.611 148.173 63.611 148.09 63.6198C148.007 63.6046 147.923 63.6046 147.84 63.6198L128.04 68.6198L106.24 62.4198C106.15 62.4101 106.06 62.4101 105.97 62.4198L106 62.3798Z" fill="#C2C2C2"/>
<path d="M180.72 123.41C180.605 123.41 180.493 123.37 180.404 123.297C180.314 123.224 180.253 123.123 180.23 123.01L169.08 70.6598C169.065 70.5955 169.063 70.5288 169.075 70.4637C169.086 70.3986 169.11 70.3364 169.145 70.2806C169.18 70.2248 169.226 70.1766 169.28 70.1387C169.334 70.1008 169.395 70.074 169.46 70.0598C169.591 70.0357 169.726 70.0626 169.838 70.1352C169.949 70.2077 170.029 70.3204 170.06 70.4498L181.24 122.8C181.255 122.864 181.257 122.931 181.245 122.996C181.234 123.061 181.21 123.123 181.175 123.179C181.14 123.235 181.094 123.283 181.04 123.321C180.986 123.359 180.924 123.386 180.86 123.4L180.72 123.41Z" fill="#D1D3D4"/>
<path d="M163.98 117.02C163.872 117.018 163.768 116.983 163.681 116.918C163.595 116.853 163.532 116.763 163.5 116.66L147.82 65.4198C147.782 65.2925 147.795 65.1555 147.857 65.0378C147.919 64.9201 148.024 64.8312 148.15 64.7898C148.276 64.7523 148.412 64.7659 148.528 64.8276C148.644 64.8894 148.731 64.9944 148.77 65.1198L164.46 116.37C164.498 116.497 164.485 116.634 164.423 116.752C164.361 116.869 164.256 116.958 164.13 117L163.98 117.02Z" fill="#D1D3D4"/>
<path d="M148.24 123.16C148.139 123.161 148.041 123.131 147.958 123.074C147.876 123.016 147.813 122.935 147.78 122.84L127.78 70.4798C127.734 70.3552 127.739 70.2172 127.794 70.0962C127.849 69.9753 127.95 69.8812 128.075 69.8348C128.2 69.7884 128.338 69.7934 128.459 69.8487C128.58 69.904 128.674 70.0052 128.72 70.1298L148.72 122.49C148.766 122.613 148.761 122.75 148.706 122.869C148.652 122.989 148.553 123.083 148.43 123.13C148.369 123.151 148.305 123.161 148.24 123.16Z" fill="#D1D3D4"/>
<path d="M112.75 84.8498C112.9 85.9207 113.192 86.9667 113.62 87.9598L115.54 92.9598C116.02 94.1998 116.79 95.6598 118.12 95.6698C118.572 95.6076 119.007 95.4552 119.398 95.2215C119.79 94.9879 120.131 94.6778 120.4 94.3098C122.4 92.3098 124.4 90.0698 124.9 87.3098C124.98 86.9098 124.9 86.3698 124.53 86.3098C124.352 86.2869 124.172 86.3257 124.02 86.4198C122.597 87.0984 121.338 88.0775 120.33 89.2898C121.721 87.8067 122.923 86.1575 123.91 84.3798C124.13 83.9898 124.3 83.3798 123.91 83.1398C123.774 83.0743 123.626 83.0402 123.475 83.0402C123.324 83.0402 123.176 83.0743 123.04 83.1398C121.992 83.5323 121.033 84.1307 120.22 84.8998C121.343 84.1161 122.225 83.0359 122.77 81.7798C122.97 81.3198 123.06 80.6498 122.61 80.4098C122.16 80.1698 121.84 80.4698 121.53 80.7198C120.751 81.3196 120.028 81.989 119.37 82.7198C119.869 82.0585 120.211 81.2926 120.37 80.4798C120.44 80.3066 120.44 80.113 120.37 79.9398C120.14 79.5998 119.61 79.8298 119.28 80.0798L114.68 83.6698C114.89 83.5098 113.76 82.1998 113.32 82.3198C112.67 82.4598 112.7 84.3998 112.75 84.8498Z" fill="white"/>
<path d="M118.14 96.2198C116.26 96.2198 115.39 93.9298 115.14 93.2198L113.22 88.2198C112.764 87.1888 112.457 86.0977 112.31 84.9798C112.31 84.6898 112.09 82.1998 113.23 81.8798C113.85 81.7098 114.57 82.4298 114.93 82.8798L119.02 79.6898C119.358 79.4004 119.796 79.2534 120.24 79.2798C120.362 79.2992 120.478 79.3439 120.581 79.4111C120.685 79.4783 120.773 79.5664 120.84 79.6698C120.92 79.8059 120.971 79.9568 120.99 80.1134C121.009 80.2699 120.995 80.4287 120.95 80.5798C120.955 80.5962 120.955 80.6135 120.95 80.6298L121.32 80.3398C121.524 80.1265 121.788 79.9792 122.076 79.9168C122.365 79.8544 122.666 79.8798 122.94 79.9898C123.66 80.3598 123.65 81.2698 123.33 81.9898C123.229 82.2223 123.115 82.4493 122.99 82.6698C123.198 82.5761 123.426 82.5336 123.653 82.5457C123.881 82.5579 124.103 82.6245 124.3 82.7398C124.81 83.1198 124.86 83.8198 124.41 84.6298C124.12 85.1498 123.82 85.6298 123.49 86.1598L123.87 85.9698C124.125 85.8252 124.421 85.7723 124.71 85.8198C125.32 85.9598 125.62 86.5998 125.46 87.4298C124.9 90.4298 122.65 92.7998 120.84 94.6898C120.521 95.1187 120.116 95.4763 119.651 95.7397C119.187 96.0032 118.672 96.1667 118.14 96.2198V96.2198ZM113.24 84.7998C113.388 85.8334 113.674 86.8424 114.09 87.7998L116.01 92.7998C116.63 94.3998 117.32 95.1798 118.12 95.1898C118.889 95.0409 119.574 94.6091 120.04 93.9798C121.76 92.1798 123.9 89.9798 124.41 87.2298C124.452 87.0794 124.452 86.9202 124.41 86.7698L124.26 86.8498C123.172 87.3717 122.181 88.0751 121.33 88.9298C121.13 89.1598 120.92 89.3898 120.71 89.6098C120.618 89.6892 120.501 89.7324 120.379 89.7314C120.258 89.7305 120.141 89.6854 120.05 89.6046C119.96 89.5238 119.902 89.4128 119.887 89.2923C119.872 89.1719 119.902 89.0501 119.97 88.9498C120.17 88.7098 120.38 88.4798 120.6 88.2498C121.704 86.9771 122.673 85.593 123.49 84.1198C123.615 83.9457 123.675 83.7335 123.66 83.5198V83.5198C123.66 83.5198 123.58 83.5198 123.26 83.5998C122.619 83.8542 122.014 84.1903 121.46 84.5998C121.176 84.865 120.875 85.1122 120.56 85.3398C120.457 85.4234 120.324 85.4624 120.192 85.4483C120.06 85.4343 119.939 85.3683 119.855 85.2648C119.771 85.1614 119.732 85.029 119.746 84.8968C119.761 84.7646 119.827 84.6434 119.93 84.5598C120.211 84.2974 120.508 84.0536 120.82 83.8298C121.475 83.1992 121.999 82.4446 122.36 81.6098C122.52 81.2598 122.51 80.9298 122.43 80.8898C122.35 80.8498 122.21 80.8898 121.88 81.1398C121.132 81.7248 120.433 82.3703 119.79 83.0698C119.748 83.1204 119.696 83.1622 119.638 83.1928C119.58 83.2234 119.516 83.2423 119.451 83.2483C119.319 83.2605 119.187 83.2197 119.085 83.1348C118.983 83.05 118.919 82.928 118.906 82.7958C118.894 82.6636 118.935 82.5319 119.02 82.4298C119.468 81.8389 119.779 81.1557 119.93 80.4298C119.934 80.3966 119.934 80.363 119.93 80.3298C119.802 80.3739 119.683 80.4418 119.58 80.5298L114.98 84.1098C114.875 84.1905 114.743 84.2263 114.611 84.2094C114.48 84.1925 114.361 84.1244 114.28 84.0198C114.203 83.9125 114.168 83.7812 114.18 83.6498C113.979 83.346 113.721 83.0844 113.42 82.8798C113.244 83.531 113.187 84.2084 113.25 84.8798L113.24 84.7998Z" fill="#231F20"/>
<path d="M231.06 62.4898C231.06 62.4898 259.12 103.28 243.87 107.28C233.26 110.07 211.31 106.99 202.87 103.56C194.43 100.13 190.87 97.3898 190.87 97.3898C190.87 97.3898 181.87 97.5198 182.72 95.2798C182.962 94.6473 183.411 94.1152 183.994 93.7703C184.577 93.4253 185.259 93.2877 185.93 93.3798C185.93 93.3798 181.61 93.3798 181.93 91.2998C182.25 89.2198 185.82 89.6098 185.82 89.6098C185.82 89.6098 179.61 87.9998 181.11 86.6098C182.61 85.2198 185.77 85.9198 185.77 85.9198C185.77 85.9198 181.54 85.5398 181.53 83.7398C181.53 80.6698 194.8 82.8298 197.53 85.0098C200.26 87.1898 219.83 89.2698 222.66 89.2898L214.81 70.8298" fill="white"/>
<path d="M233.07 108.88C222.16 108.88 208.94 106.56 202.72 104.02C198.505 102.427 194.481 100.371 190.72 97.8898C189.17 97.8898 183.49 97.8898 182.39 96.2598C182.273 96.0926 182.201 95.8984 182.18 95.6954C182.159 95.4924 182.19 95.2874 182.27 95.0998C182.502 94.4699 182.916 93.9234 183.46 93.5298C182.848 93.3797 182.29 93.061 181.85 92.6098C181.69 92.4199 181.574 92.1963 181.512 91.9558C181.45 91.7152 181.442 91.4637 181.49 91.2198C181.584 90.7598 181.81 90.3371 182.14 90.0033C182.471 89.6695 182.891 89.4389 183.35 89.3398C181.99 88.8298 180.65 88.1398 180.45 87.3398C180.418 87.1544 180.436 86.9637 180.503 86.7878C180.57 86.6119 180.683 86.4572 180.83 86.3398C181.258 85.9762 181.765 85.7162 182.31 85.5798C181.963 85.4359 181.664 85.1974 181.447 84.8915C181.229 84.5855 181.102 84.2246 181.08 83.8498C181.087 83.525 181.192 83.2098 181.381 82.9456C181.57 82.6815 181.835 82.4807 182.14 82.3698C185.14 80.8898 195.35 82.6898 197.92 84.7298C200.25 86.5798 217.16 88.6198 221.92 88.8698L214.38 71.1398C214.354 71.0802 214.34 71.0159 214.338 70.9507C214.337 70.8855 214.349 70.8207 214.373 70.7602C214.398 70.6997 214.434 70.6446 214.479 70.5981C214.525 70.5517 214.58 70.5149 214.64 70.4898C214.7 70.4633 214.765 70.4491 214.831 70.4478C214.897 70.4465 214.963 70.4583 215.024 70.4825C215.085 70.5067 215.141 70.5427 215.189 70.5886C215.236 70.6345 215.274 70.6893 215.3 70.7498L223.24 89.1398C223.273 89.216 223.287 89.2994 223.28 89.3822C223.273 89.4651 223.245 89.5449 223.2 89.6144C223.154 89.6839 223.092 89.7409 223.018 89.7803C222.945 89.8196 222.863 89.8401 222.78 89.8398C220.53 89.8398 200.33 87.8398 197.34 85.4498C195.06 83.6398 185.34 81.9098 182.62 83.2098C182.13 83.4498 182.13 83.6898 182.13 83.7798C182.13 84.5998 183.75 85.1198 185.04 85.3498C185.352 85.3775 185.662 85.4209 185.97 85.4798C186.096 85.5064 186.207 85.5805 186.279 85.6867C186.352 85.7928 186.381 85.9229 186.36 86.0498C186.343 86.1764 186.276 86.2912 186.175 86.3697C186.075 86.4481 185.947 86.4841 185.82 86.4698C185.7 86.4698 185.35 86.4698 184.88 86.3398C183.72 86.1532 182.531 86.3987 181.54 87.0298L181.47 87.1098C181.55 87.5598 183.73 88.5198 186.05 89.1098C186.172 89.1429 186.278 89.2212 186.344 89.3288C186.411 89.4365 186.435 89.5655 186.41 89.6898C186.386 89.8117 186.317 89.9201 186.217 89.9941C186.117 90.068 185.994 90.1021 185.87 90.0898C185.87 90.0898 182.79 89.8298 182.52 91.3798C182.497 91.4799 182.499 91.5839 182.525 91.6831C182.552 91.7823 182.601 91.8738 182.67 91.9498C183.492 92.5465 184.484 92.8621 185.5 92.8498C185.686 92.8341 185.874 92.8341 186.06 92.8498C186.186 92.8696 186.301 92.936 186.38 93.036C186.46 93.136 186.499 93.2623 186.49 93.3898C186.48 93.5154 186.423 93.6325 186.33 93.7178C186.237 93.8031 186.116 93.8502 185.99 93.8498C185.834 93.8675 185.676 93.8675 185.52 93.8498C185.025 93.8582 184.544 94.0153 184.139 94.3006C183.734 94.5859 183.424 94.9863 183.25 95.4498C183.226 95.4835 183.214 95.5237 183.214 95.5648C183.214 95.606 183.226 95.6461 183.25 95.6798C183.86 96.5698 188.08 96.9198 190.9 96.8798C191.012 96.8733 191.123 96.9089 191.21 96.9798C191.21 96.9798 194.87 99.7198 203.09 103.09C211.31 106.46 233.3 109.53 243.73 106.79C244.569 106.612 245.348 106.222 245.992 105.656C246.637 105.09 247.125 104.369 247.41 103.56C251.33 93.0198 230.85 63.0698 230.64 62.7598C230.583 62.6513 230.569 62.5258 230.598 62.4071C230.628 62.2885 230.7 62.1848 230.801 62.1158C230.902 62.0468 231.025 62.0172 231.147 62.0327C231.268 62.0482 231.38 62.1077 231.46 62.1998C232.32 63.4498 252.46 92.8898 248.35 103.91C248.008 104.867 247.428 105.721 246.666 106.393C245.903 107.064 244.982 107.531 243.99 107.75C240.41 108.573 236.743 108.952 233.07 108.88V108.88Z" fill="#231F20"/>
<path d="M185.74 237.44C185.74 237.44 180.85 241.25 176.94 238.12C176.94 238.12 164.08 236.97 162.61 245.77H185.37L185.74 237.44Z" fill="#4717B0"/>
<path d="M185.37 246.27H162.61C162.537 246.27 162.465 246.254 162.4 246.223C162.334 246.192 162.276 246.146 162.23 246.09C162.185 246.034 162.152 245.97 162.133 245.901C162.114 245.832 162.11 245.76 162.12 245.69C163.65 236.54 176.86 237.62 176.99 237.63C177.088 237.641 177.182 237.679 177.26 237.74C180.81 240.58 185.26 237.19 185.43 237.05C185.506 236.99 185.597 236.954 185.693 236.945C185.788 236.936 185.885 236.955 185.97 237C186.052 237.045 186.121 237.112 186.168 237.193C186.216 237.274 186.241 237.366 186.24 237.46L185.87 245.79C185.865 245.919 185.81 246.041 185.717 246.131C185.623 246.22 185.499 246.27 185.37 246.27ZM163.22 245.27H184.9L185.2 238.39C183.57 239.39 179.9 241 176.76 238.61C175.41 238.53 164.95 238.12 163.24 245.27H163.22Z" fill="#4717B0"/>
<path d="M37.07 63.3098H32.77V219.06H37.07V63.3098Z" fill="#43464B"/>
<path d="M37.07 219.56H32.77C32.6374 219.56 32.5102 219.507 32.4165 219.413C32.3227 219.32 32.27 219.192 32.27 219.06V63.3098C32.27 63.1772 32.3227 63.05 32.4165 62.9563C32.5102 62.8625 32.6374 62.8098 32.77 62.8098H37.07C37.2018 62.8124 37.3275 62.8659 37.4207 62.9591C37.514 63.0523 37.5675 63.178 37.57 63.3098V219.06C37.57 219.192 37.5173 219.32 37.4236 219.413C37.3298 219.507 37.2026 219.56 37.07 219.56ZM33.27 218.56H36.57V63.8098H33.24L33.27 218.56Z" fill="#D1D3D4"/>
<path d="M54.16 117.49H10.94V98.2098H54.16L61.08 107.85L54.16 117.49Z" fill="#43464B"/>
<path d="M54.16 117.99H10.94C10.8074 117.99 10.6802 117.937 10.5864 117.843C10.4927 117.75 10.44 117.622 10.44 117.49V98.2198C10.44 98.0872 10.4927 97.96 10.5864 97.8663C10.6802 97.7725 10.8074 97.7198 10.94 97.7198H54.16C54.2386 97.7202 54.316 97.7394 54.3857 97.776C54.4553 97.8125 54.5151 97.8653 54.56 97.9298L61.49 107.57C61.5489 107.655 61.5805 107.756 61.5805 107.86C61.5805 107.963 61.5489 108.065 61.49 108.15L54.56 117.79C54.5158 117.854 54.4559 117.907 54.3859 117.942C54.316 117.977 54.2382 117.993 54.16 117.99V117.99ZM11.44 116.99H53.9L60.46 107.85L53.9 98.7098H11.44V116.99Z" fill="#D1D3D4"/>
<path d="M11.38 90.8498H54.6V71.5698H11.38L4.46002 81.2098L11.38 90.8498Z" fill="#43464B"/>
<path d="M54.6 91.3498H11.38C11.3001 91.3487 11.2216 91.3291 11.1505 91.2927C11.0794 91.2563 11.0176 91.204 10.97 91.1398L4.05001 81.4998C3.99154 81.4125 3.96033 81.3099 3.96033 81.2048C3.96033 81.0998 3.99154 80.9971 4.05001 80.9098L10.97 71.2698C11.0181 71.2069 11.0802 71.1561 11.1514 71.1214C11.2226 71.0867 11.3008 71.069 11.38 71.0698H54.6C54.7326 71.0698 54.8598 71.1225 54.9536 71.2163C55.0473 71.31 55.1 71.4372 55.1 71.5698V90.8498C55.0975 90.9816 55.044 91.1073 54.9507 91.2005C54.8575 91.2938 54.7318 91.3473 54.6 91.3498V91.3498ZM11.6 90.3498H54.06V72.0698H11.64L5.07001 81.2198L11.6 90.3498Z" fill="#D1D3D4"/>
</svg>
