<?xml version="1.0" standalone="no"?>
<svg version="1.1" id="Layer_1" xmlns="http://www.w3.org/2000/svg" xmlns:xlink="http://www.w3.org/1999/xlink" x="0px" y="0px" width="595.28px" height="595.28px" viewBox="0 0 595.28 595.28" enable-background="new 0 0 595.28 595.28" xml:space="preserve">
<path id="color_x5F_2" fill="#20b086" d="M395.91,315.767c3.058,5.63,5.657,12.284,5.326,18.696
	c-10.689,2.093-22.016,3.743-32.81,1.516c0.065-0.103,0.133-0.204,0.185-0.321c0.29-0.656-0.576-2.482-1.286-3.04
	C377.161,327.542,386.688,321.886,395.91,315.767z M404.325,333.431c-0.052-0.166-0.106-0.34-0.167-0.53
	c-0.001,0.119,0.003,0.238-0.001,0.356C404.227,333.303,404.273,333.37,404.325,333.431z M404.526,334.08
	c0.002,0.256,0.008,0.514,0.011,0.77c0.135-0.023,0.212-0.037,0.212-0.037S404.668,334.541,404.526,334.08z M358.599,314.837
	c7.773-8.213,16.959-14.967,25.714-22.091c-0.064-0.068-0.121-0.144-0.164-0.232c-6.009-12.385-13.111-24.196-18.939-36.674
	c-0.555-1.188,2.31-2.036,2.897-0.776c5.745,12.3,12.725,23.957,18.678,36.151c1.016-0.039,1.985,0.66,0.87,1.579
	c-8.508,7.011-17.534,13.572-25.291,21.441c4.07,4.796,2.226,11.567,3.105,17.331c0.004,0.027-0.004,0.053-0.008,0.08
	c10.375-5.316,20.438-11.299,30.094-17.833c4.208-2.848,8.924-6.004,11.785-10.319c3.056-4.608,2.318-8.817,1.262-14.023
	c-2.417-11.908-6.47-23.564-12.101-34.343c-3.842-7.355-8.402-15.677-15.063-20.96h-0.477c-7.778,1.807-17.555-1.401-22.8-7.368
	c-1.595-1.814-2.993-3.77-4.217-5.822c-3.379,3.502-8.189,3.555-12.911,3.471c0.093,0.897,0.148,1.819,0.166,2.764
	c0.016,0.817-2.568,1.272-2.867,0.858c-11.318,4.875-26.598,4.759-32.191,17.61c-3.818,8.774-4.715,19.18-6.528,28.509
	c7.602,0,15.203,0,22.804,0c-3.011-5.185-0.758-10.862,0.061-16.43c0.136-0.922,3.046-1.457,2.89-0.393
	c-0.773,5.259-3.141,11.088-0.095,16c0.183,0.295,0.04,0.585-0.258,0.823c0.4,0,0.801,0,1.201,0c0.765,0,0.91,0.241,0.746,0.533
	c3.487,1.028,5.4,5.216,6.638,8.3c2.529,6.303,4.008,13.024,5.229,19.688c0.998,5.446,1.831,10.933,2.525,16.437
	c2.605-2.114,5.939-2.902,9.392-3.297c0.873-0.154,1.781-0.25,2.723-0.25c0.023,0,0.042,0,0.066,0
	c1.627-0.117,3.246-0.202,4.793-0.349C358.372,315.124,358.456,314.987,358.599,314.837z M362.31,327.468
	c-0.009,0.022-0.018,0.05-0.027,0.071c0.009,0,0.018,0,0.027,0C362.31,327.516,362.31,327.492,362.31,327.468z M365.65,335.384
	c-0.276-0.631-0.832-1.219-1.193-1.837c0.313,0.715,0.76,1.638,1.239,2.307C365.728,335.712,365.727,335.561,365.65,335.384z
	 M344.693,329.543c-0.333,0.487-0.645,0.989-0.919,1.517c-0.188,0.361-0.62,0.605-1.094,0.725c0.002,0.026,0.005,0.052,0.007,0.079
	c6.609,0,13.217,0,19.826,0c-0.115-0.921-0.171-1.871-0.191-2.84c-1.388,0.75-2.842,1.249-4.333,1.554
	c-1.002,0.395-2.027,0.603-2.86,0.353C351.652,331.108,348.068,330.446,344.693,329.543z"></path>
<path id="color_x5F_1" d="M312.739,193.764c-3.368,0.438-6.707-0.33-6.138-4.446c0.514-3.719,2.351-7.021,3.232-10.635
	c0.172-0.707,3.001-1.119,2.855-0.52c-0.964,3.954-7.352,15.593,1.314,14.464C315.893,192.382,313.457,193.67,312.739,193.764z
	 M335.388,194.042c0.238-0.899-2.65-0.457-2.882,0.421c-0.479,1.814-1.481,2.835-3.126,3.673c-0.345,0.176-0.922,0.742-0.293,0.983
	c0.643,0.247,1.463-0.015,2.042-0.31C333.205,197.751,334.778,196.351,335.388,194.042z M307.434,182.784
	c-0.516-1.551-1.017-3.101-1.055-4.749c-0.02-0.85-2.922-0.299-2.897,0.776c0.038,1.648,0.539,3.198,1.055,4.749
	C304.857,184.526,307.737,183.696,307.434,182.784z M326.96,177.735c0.263-1.199-2.674-0.752-2.909,0.321
	c-0.484,2.211-0.032,4.331,1.17,6.23c0.569,0.899,3.375-0.077,2.68-1.176C326.869,181.479,326.548,179.618,326.96,177.735z
	 M330.314,171.778c-2.805-2.651-6.426-2.622-9.465-0.357c-1.579,1.177,0.769,2.208,1.928,1.344c1.961-1.462,3.642-0.875,5.307,0.698
	C329.029,174.356,331.542,172.939,330.314,171.778z M177.316,352.798c-0.314,0.971-0.753,1.83-1.6,2.436
	c-0.8,0.572-2.521-0.727-3.105-1.185c-0.667-0.521-3.245,0.612-2.722,1.021c3.426,2.679,8.888,1.604,10.294-2.749
	C180.404,351.639,177.57,352.011,177.316,352.798z M197.313,343.788c-0.175,0.938-0.465,1.822-1.078,2.568
	c-0.606,0.737-1.156,0.672-2.065,0.54c-0.664-0.097-1.512,0.161-2.049,0.549c-0.482,0.348-0.344,0.699,0.209,0.779
	c3.589,0.522,7.154-1.139,7.856-4.892C200.346,342.478,197.464,342.983,197.313,343.788z M194.497,352.813
	c0.073,1.027,0.079,2.129-0.604,2.973c-0.63,0.779-2.306,0.194-3.252-0.147c-0.005-0.226-0.112-0.457-0.365-0.675
	c-0.89-0.766-1.679-1.784-2.161-2.858c-0.02-0.043-0.054-0.066-0.077-0.105c0.237-0.116,0.476-0.229,0.723-0.326
	c0.416-0.163,1.189-0.761,0.744-1.271c-0.456-0.522-1.394-0.302-1.935-0.09c-1.419,0.556-2.678,1.415-3.991,2.174
	c-0.45,0.261-0.819,0.923-0.222,1.251c0.638,0.35,1.479,0.097,2.061-0.24c0.03-0.017,0.059-0.036,0.089-0.053
	c0.622,1.201,1.441,2.265,2.466,3.165c-0.403,2.26-1.503,3.94-3.899,2.526c-0.993-0.586-3.595,0.788-2.26,1.576
	c3.636,2.146,7.309,0.625,8.67-2.903c3.861,0.629,7.248-1.043,6.909-5.773C197.309,350.847,194.403,351.514,194.497,352.813z
	 M167.657,344.473c-1.363-0.448-2.531-1.353-3.913-1.777c-1.327-0.408-3.534-0.278-4.068,1.284c-0.384,1.122,0.956,2.59,1.59,3.346
	c0.884,1.054,1.918,2.106,3.054,2.894c0.555,0.385,1.322,0.253,1.913,0.008c0.232-0.096,1.333-0.746,0.783-1.127
	c-1.565-1.085-3.18-2.692-4.118-4.352c-0.018-0.032-0.037-0.069-0.056-0.104c0.83,0.411,1.625,0.914,2.502,1.202
	c0.675,0.222,1.443,0.079,2.049-0.281C167.712,345.374,168.337,344.696,167.657,344.473z M194.782,330.771
	c-0.251-1.039,0.07-2.124,0.463-3.085c0.149-0.366,0.355-0.709,0.588-1.033c0.045,0.052,0.094,0.104,0.129,0.153
	c1.162,1.634,0.343,4.091,0.923,5.908c0.208,0.651,3.085-0.189,2.897-0.776c-0.668-2.095,0.591-6.828-2.827-6.788
	c-3.116,0.037-5.829,3.26-5.07,6.397C192.034,332.163,194.939,331.42,194.782,330.771z M175.911,307.042
	c1.646-0.377,3.31-0.536,4.956-0.282c-1.826,2.248-3.218,4.912-5.491,6.721c-0.572,0.455-0.768,1.297,0.104,1.559
	c2.203,0.664,4.419,0.735,6.704,0.738c1.62,0.002,2.253-2.022,0.283-2.024c-1.312-0.001-2.596-0.044-3.868-0.265
	c2.07-2.151,3.512-4.832,5.597-6.997c0.457-0.475,0.268-1.147-0.357-1.333c-2.784-0.828-5.629-0.645-8.432-0.002
	C173.6,305.571,174.126,307.451,175.911,307.042z M189.086,293.682c1.646-0.377,3.31-0.536,4.956-0.282
	c-1.826,2.248-3.218,4.912-5.491,6.721c-0.572,0.455-0.768,1.297,0.104,1.559c2.203,0.664,4.419,0.735,6.704,0.738
	c1.62,0.002,2.253-2.022,0.283-2.024c-1.312-0.001-2.596-0.044-3.868-0.265c2.07-2.151,3.512-4.832,5.597-6.997
	c0.457-0.475,0.268-1.147-0.357-1.333c-2.784-0.828-5.629-0.645-8.432-0.002C186.775,292.21,187.301,294.091,189.086,293.682z
	 M175.798,231.846c-0.051-0.042-0.086-0.092-0.086-0.156c0-32.499,0-64.997,0-97.495c0-0.086,0.031-0.166,0.074-0.244
	c0.016-0.586,0.585-1.23,1.497-1.23c30.652,0,61.305,0,91.958,0c0.596,0,0.958,0.201,1.132,0.479
	c0.118,0.048,0.194,0.119,0.194,0.218c0,32.499,0,64.997,0,97.495c0,0.097-0.037,0.188-0.091,0.274
	c0.13,0.629-0.461,1.43-1.479,1.43c-30.652,0-61.305,0-91.958,0C176.249,232.619,175.868,232.266,175.798,231.846z M178.609,230.448
	c29.687,0,59.374,0,89.06,0c0-31.852,0-63.703,0-95.555c-29.687,0-59.374,0-89.06,0
	C178.609,166.745,178.609,198.596,178.609,230.448z M259.455,145.228c0,24.644,0,49.289,0,73.933c0,0.099-0.034,0.191-0.082,0.28
	c0.081,0.619-0.503,1.369-1.489,1.369c-23.244,0-46.489,0-69.733,0c-0.706,0-1.085-0.282-1.208-0.642
	c-0.089-0.144-0.142-0.317-0.142-0.527c0-24.645,0-49.289,0-73.933c0-0.895,1.208-1.369,2.077-1.178c23.083,0,46.167,0,69.251,0
	c0.542,0,0.888,0.168,1.078,0.408C259.359,144.998,259.455,145.092,259.455,145.228z M256.557,146.702c-22.271,0-44.541,0-66.812,0
	c0,23.979,0,47.958,0,71.937c22.271,0,44.541,0,66.812,0C256.557,194.66,256.557,170.681,256.557,146.702z M205.024,195.733
	c-0.242-0.575,0.181-1.055,0.778-1.298c0.127-0.529,0.671-1.086,1.462-1.166c5.079-0.511,9.643-0.707,13.383,1.91
	c-0.098-0.146-0.198-0.288-0.29-0.446c-0.094-0.162,0.263-0.425,0.756-0.644c-0.435-3.308-0.698-6.625-0.752-9.913
	c-4.149-0.256-8.341-1.549-10.201-5.672c-2.395-5.311-1.825-11.426-1.803-17.104c0-0.127,0.075-0.244,0.191-0.35
	c-0.025-0.033-0.052-0.063-0.077-0.096c-0.83-1.092,1.951-2.164,2.668-1.22c1.454,1.913,3.066,3.672,4.738,5.386
	c1.986-3.133,4.863-5.724,6.83-8.862c0.164-0.262,0.612-0.449,1.106-0.563c0.819-0.387,1.987-0.409,2.107,0.261
	c0.534,2.978,1.466,5.807,2.533,8.612c2.126-1.937,4.708-3.349,7.369-4.442c0.735-0.302,1.492-0.069,1.87,0.335
	c0.14,0.03,0.229,0.082,0.229,0.161c0,0.081-0.001,0.164-0.002,0.245c0.021,0.092,0.019,0.187-0.002,0.282
	c-0.083,10.315-1.817,22.611-14.629,23.057c0.071,2.664,0.278,5.344,0.599,8.023c4.368-4.031,11.036-5.537,16.801-4.026
	c0.933,0.245,0.559,0.805-0.117,1.203c-0.002,0.006,0.001,0.01-0.002,0.017c-2.322,4.199-10.221,9.568-15.839,8.475
	c0.738,4.152,1.708,8.261,2.859,12.239c0.171,0.592-2.719,1.396-2.897,0.776c-0.737-2.549-1.394-5.154-1.973-7.786
	c-0.078,0.042-0.16,0.084-0.257,0.122C215.631,205.92,207.868,202.483,205.024,195.733z M224.27,195.071
	c0.012,0.082,0.024,0.164,0.037,0.246c3.96,3.813,11.159-1.327,13.403-5.385c0.064-0.115,0.188-0.215,0.344-0.303
	C232.699,188.569,227.276,190.622,224.27,195.071z M235.009,162.852c-2.281,1.133-4.383,2.573-5.984,4.61
	c-0.082,0.104-0.183,0.193-0.296,0.268c-0.037,0.024-0.08,0.039-0.119,0.06c-0.081,0.043-0.161,0.088-0.25,0.119
	c-0.062,0.022-0.128,0.033-0.193,0.049c-0.069,0.017-0.138,0.037-0.209,0.047c-0.093,0.013-0.188,0.016-0.281,0.017
	c-0.04,0.001-0.081,0.005-0.121,0.003c-0.121-0.004-0.24-0.019-0.353-0.042c-0.008-0.001-0.018-0.002-0.026-0.004
	c-0.375-0.083-0.683-0.267-0.797-0.537c0,0,0,0,0-0.001c-0.007-0.014-0.018-0.025-0.023-0.04c-0.011-0.027-0.021-0.053-0.032-0.08
	c-1.135-2.844-2.185-5.687-2.891-8.652c-2.127,2.595-4.52,5.03-5.865,8.097c-0.054,0.123-0.176,0.231-0.334,0.328
	c-0.413,0.675-2.129,1.165-2.764,0.529c-1.124-1.124-2.228-2.261-3.292-3.434c-0.164,6.95-0.056,16.248,7.373,18.235
	C232.921,186.267,234.839,173.189,235.009,162.852z M208.092,195.314c2.188,4.683,7.978,8.111,13.059,6.125
	c0.416-0.163,0.835-0.152,1.194-0.042c-0.089-0.435-0.169-0.872-0.253-1.308c-0.385-0.013-0.737-0.142-0.944-0.435
	C217.719,194.806,213.334,194.819,208.092,195.314z M501.935,474.775c0.043,0.963-1.673,1.466-2.499,0.966
	c-20.638-0.049-41.277-0.099-61.916-0.148c-0.653,0.723-1.494,1.154-2.583,1.167c-4.919,0.06-8.192-5.618-10.21-9.357
	c-2.436-4.513-4.576-9.266-6.039-14.189c-0.008-0.025-0.005-0.05-0.01-0.075c-15.461,0-30.923,0-46.385,0
	c1.113,1.742,2.336,3.373,3.714,4.818c0.181,0.19,0.119,0.403-0.078,0.601c-0.037,0.046-0.071,0.09-0.123,0.141
	c-0.64,0.625-1.334,1.159-2.051,1.651c7.229,2.703,9.614,11.828,9.734,18.867c0.001,0.09-0.029,0.175-0.073,0.256
	c-0.022,0.588-0.586,1.228-1.495,1.228c-17.938,0-35.876,0-53.815,0c-0.578,0-0.936-0.192-1.117-0.46
	c-0.286-0.064-0.446-0.205-0.339-0.442c2.148-4.762,4.506-11.721,9.477-14.368c3.521-1.876,7.704-2.266,11.664-2.931
	c-2.439-3.062-4.785-6.189-7.07-9.361c-61.248,0-122.496,0-183.744,0c0.15,0.121,0.218,0.296,0.145,0.54
	c-2.258,7.543-7.254,21.719-16.329,23.084c-7.234,1.088-3.324-20.499-3.254-24.124c0.003-0.171,0.08-0.327,0.197-0.466
	c-17.274-7.697-33.807-21.916-34.182-42.391c-0.244-13.349,5.436-30.751,18.545-36.165c-5.423-9.058-11.405-19.282-12.584-29.884
	c-0.505-4.55-0.121-9.095,3.115-12.592c2.25-2.432,6.012-3.876,9.577-4.196c0.139-0.306,0.276-0.612,0.416-0.917
	c7.142-15.561,14.533-32.254,25.282-45.701c13.451-16.828,34.452-18.918,54.453-20.652c32.352-2.804,65.014-2.849,97.475-2.571
	c1.082-4.94,2.559-9.729,4.989-13.922c2.998-5.175,7.829-7.941,13.203-9.884c-7.905-3.018-14.119-9.377-18.094-16.772
	c-5.879-10.934-8.38-24.254-7.987-36.633c0.362-11.429,4.367-21.31,13.348-28.625c8.473-6.902,19.562-11.105,30.606-11.239
	c0.497-0.015,0.992-0.02,1.485-0.004c0.039,0.001,0.079,0.003,0.118,0.004c5.172,0.124,10.306,1.157,15.128,3.248
	c8.089,3.507,14.895,9.597,18.723,17.62c2.997,6.279,3.94,12.813,3.814,19.726c-0.108,5.906-1.274,13.08,1.082,18.685
	c3.394,8.07,10.513,14.232,15.221,21.519c5.242,8.114,8.261,16.86,6.186,26.537c-0.066,0.307-0.385,0.562-0.788,0.739
	c-0.077,0.374-0.153,0.719-0.227,1.034c0.972,1.747,1.89,3.499,2.76,5.216c1.79,3.527,3.462,7.146,4.988,10.835
	c25.544,10.943,35.593,38.44,46.82,61.773c3.068-0.093,5.924,0.602,8.307,1.955c0.121-46.08,1.971-92.147,1.239-138.229
	c-11.457-0.095-22.914-0.189-34.371-0.284c-0.556-0.004-0.906-0.185-1.092-0.437c-0.165-0.165-0.264-0.393-0.257-0.69
	c0.481-19.625,10.461-37.554,10.929-57.206c0.021-0.885,1.228-1.358,2.09-1.176c16.714,0.139,33.428,0.276,50.142,0.414
	c0.246,0.002,0.452,0.038,0.623,0.099c0.411,0.114,0.716,0.389,0.721,0.868c0.207,19.92,12.173,37.496,12.396,57.398
	c0.002,0.192-0.07,0.363-0.183,0.514c-0.197,0.447-0.697,0.832-1.406,0.826c-12.224-0.101-24.448-0.202-36.672-0.303
	c0.731,46.752-1.189,93.488-1.251,140.237c0,0.053-0.013,0.103-0.025,0.153c2.697,2.708,4.204,6.617,3.766,11.358
	c-0.473,5.125-1.983,10.117-4.018,14.926c0.082,0.026,0.129,0.063,0.129,0.114c-0.054,6.516-0.107,13.033-0.161,19.549
	c-0.001,0.189-0.172,0.355-0.428,0.493c8.683,7.713,12.644,21.901,11.831,32.751c-0.787,10.494-5.306,19.229-11.894,26.292
	c-0.055,6.686-0.11,13.371-0.166,20.057c-0.001,0.175-0.134,0.33-0.336,0.462c9.025,0.022,18.049,0.043,27.074,0.065
	c0.32,0.001,0.567,0.063,0.76,0.16c0.329,0.138,0.566,0.395,0.583,0.807c0.16,3.841,5.053,6.971,7.595,9.278
	C499.316,469.391,501.795,471.645,501.935,474.775z M498.972,188.826c-0.62-19.115-11.779-36.173-12.337-55.361
	c-15.93-0.132-31.86-0.263-47.791-0.395c-0.818,18.905-10.096,36.276-10.82,55.17C451.673,188.436,475.322,188.631,498.972,188.826z
	 M445.609,330.323c-9.158,4.664-14.66,15.454-18.705,24.428c-2.525,5.604-4.824,11.384-6.53,17.296
	c-0.033,0.112-0.092,0.214-0.162,0.312c9.775,0,19.551,0,29.327,0c0.309-0.147,0.656-0.224,0.983-0.176
	c0.295,0.044,0.581,0.106,0.87,0.163c0.017-0.106,0.052-0.221,0.129-0.351c4.719-7.896,9.54-16.585,11.208-25.726
	c0.796-4.367,1.25-9.967-2.115-13.464C456.939,328.985,450.329,327.919,445.609,330.323z M454.292,372.323
	c-0.145,0.243-0.409,0.427-0.717,0.556c2.044,0.63,3.928,1.569,5.66,2.745c0.034-4.089,0.067-8.179,0.101-12.268
	C457.746,366.441,456.017,369.437,454.292,372.323z M405.532,268.033c3.219,8.29,5.64,16.91,6.817,25.669
	c1.261,9.391-6.879,15.621-13.922,20.387c-0.029,0.02-0.058,0.039-0.086,0.058c3.128,5.577,5.915,12.261,5.818,18.754
	c-0.001,0.119,0.003,0.238-0.001,0.356c0.069,0.045,0.115,0.112,0.167,0.173c0.113,0.132,0.197,0.288,0.199,0.502
	c0,0.049,0.002,0.098,0.002,0.146c0.002,0.256,0.008,0.514,0.011,0.77c0.141,9.525,1.134,19.236-3.793,27.834
	c-2.32,4.049-8.224,5.975-12.4,7.131c-3.909,1.083-7.889,1.906-11.911,2.544c13.664,0,27.328,0,40.992,0
	c0.006-0.03,0.004-0.057,0.014-0.089c2.208-7.648,5.193-15.209,8.829-22.285c4.414-8.59,11.084-20.316,21.417-22.59
	c0.142-0.031,0.283-0.055,0.424-0.083C437.635,305.463,428.06,279.729,405.532,268.033z M284.792,352.995
	c2.308-7.641,9.502-12.625,17.33-14.758c-10.604,0.007-21.208,0.009-31.813-0.055c-3.173-0.02-6.352-0.132-9.524-0.115
	c-1.907,0.011-5.298,0.267-7.579-0.43c-0.371,0.401-0.952,0.717-1.53,0.678c-3.591-0.247-7.623,0.159-11.167,1.548
	c-0.276,0.373-0.994,0.667-1.639,0.742c-2.042,1.037-3.856,2.446-5.223,4.32c-3.119,4.278-4.261,11.888-2.053,17.366
	c0.246,0.203,0.382,0.484,0.349,0.78c0.524,1.085,1.18,2.079,2.009,2.912c4.867,4.886,12.99,5.818,19.539,6.096
	c8.01,0.341,16.043-0.376,23.897-1.965c2.963-4.448,5.532-9.209,6.807-14.106C284.306,354.971,284.5,353.963,284.792,352.995z
	 M284.461,362.541c-1.485,2.878-3.238,5.631-4.876,8.49c-2.424,4.231-6.284,7.739-8.398,12.084
	c-3.592,7.386,1.979,14.526,10.003,13.536c6.523-0.805,12.461-3.253,14.831-9.766c-2.341-2.836-4.618-5.705-6.28-9.081
	C287.649,373.559,285.346,368,284.461,362.541z M228.853,362.813c-2.375-6.868-1.51-15.435,3.917-20.51
	c1.375-1.287,2.889-2.348,4.497-3.211c-1.888-3.731-7.459-5.965-11.013-7.181c0.995,2.454,0.764,5.274,1.196,7.86
	c0.159,0.947-2.756,1.624-2.897,0.776c-0.491-2.935-0.123-6.172-1.667-8.833c-0.128-0.22,0.114-0.482,0.504-0.698
	c-1.541-0.436-3.176-0.812-4.833-1.052c0.979,2.335,2.438,4.277,2.395,7.019c-0.016,0.978-2.919,1.585-2.9,0.354
	c0.045-2.907-1.925-5.011-2.78-7.647c-3.729-0.048-7.288,0.895-9.764,3.796c-0.053,0.062-0.132,0.119-0.221,0.173
	c11.882,11.031,7.778,22.167-1.543,29.416c1.229-0.146,2.348,0.304,3.041,1.698c0.541,1.088-2.308,1.962-2.897,0.776
	c-0.771-1.549-3.972,2.603-3.608,4.017c0.579,2.251,4.95,2.309,5.595,0.059c0.338-1.179,3.293-1.547,2.925-0.261
	c-0.072,0.253-0.182,0.479-0.292,0.704c2.998,2.04,6.352,0.994,8.238-1.276c-0.602-2.206-2.525-3.399-4.369-4.667
	c-1.31-0.901,1.283-2.261,2.255-1.593c1.27,0.874,2.582,1.756,3.579,2.872c0.131-1.222-0.114-2.517-0.866-3.759
	c-1.566-2.585-3.562-4.878-4.122-7.928c-0.231-1.259,2.675-1.988,2.897-0.776c1.079,5.878,7.706,9.334,3.75,15.64
	c-0.026,0.042-0.057,0.078-0.083,0.119c0.016,0.451-0.333,0.825-0.803,1.059c-0.98,1.133-2.188,2.018-3.52,2.604
	c3.228,0,6.456,0,9.685,0C223.088,368.9,225.458,365.056,228.853,362.813z M206.771,371.958c-0.227,0.147-0.459,0.283-0.706,0.402
	c0.493,0,0.985,0,1.478,0C207.281,372.238,207.024,372.105,206.771,371.958z M197.325,369.805c-0.041-1.069,0.543-2.34,1.449-3.491
	c-8.466,4.621-19.056,6.415-26.504,3.426c-0.241,0.099-0.492,0.174-0.742,0.215c-0.068,0.08-0.141,0.156-0.186,0.255
	c-0.137,0.299-0.247,0.63-0.214,0.964c0.051,0.513,0.272,0.968,0.695,1.185c9.015,0,18.03,0,27.044,0
	C197.996,371.812,197.371,370.983,197.325,369.805z M209.141,352.428c0.296-1.058,0.455-2.091,0.516-3.102
	c-2.102,0.949-4.35,1.548-6.657,1.749c-1.995,0.173-1.179-1.7,0.335-1.832c2.103-0.183,4.222-0.746,6.073-1.782
	c0.073-0.041,0.15-0.081,0.23-0.119c-0.066-0.804-0.202-1.59-0.397-2.359c-2.084,1.302-4.484,1.928-6.605,3.171
	c-1.413,0.828-2.966-0.661-1.27-1.655c2.085-1.222,4.534-1.741,6.514-3.143c0.207-0.146,0.464-0.249,0.73-0.321
	c-1.338-3.36-3.796-6.347-6.673-8.895c-0.318-0.094-0.501-0.298-0.386-0.639c0.805-2.377,0.417-4.956-0.74-7.167
	c-0.609-1.163-2.66-4.717-4.42-4.145c-3.718,1.208-7.558,5.697-5.924,9.688c0.026,0.065,0.04,0.129,0.043,0.192
	c0.864-0.007,1.71,0.018,2.51,0.103c1.96,0.208,0.296,2.117-1.038,1.976c-2.112-0.224-4.533-0.055-6.965,0.469
	c0.183,0.983,0.491,1.918,0.933,2.822c0.307,0.627-0.787,1.19-1.204,1.302c-0.629,0.168-1.382,0.111-1.694-0.526
	c-0.439-0.896-0.745-1.824-0.929-2.798c-0.442,0.149-0.878,0.312-1.311,0.485c0.17,2.372,2.058,4.727,3.371,6.54
	c0.642,0.886-2.162,1.846-2.699,1.104c-1.335-1.843-2.983-3.996-3.452-6.318c-1.269,0.712-2.436,1.542-3.455,2.48
	c0.02,0.012,0.043,0.021,0.062,0.034c0.824,0.621,1.631,1.268,2.366,1.992c0.499,0.492-0.368,1.122-0.74,1.287
	c-0.572,0.254-1.443,0.387-1.937-0.1c-0.469-0.463-0.973-0.886-1.489-1.294c-0.482,0.651-0.909,1.333-1.238,2.062
	c-0.487,1.081-3.408,1.203-2.75-0.255c0.259-0.575,0.572-1.123,0.914-1.656c-1.503-2.016-3.999-2.427-6.391-1.834
	c-1.299,0.322-3.912,0.937-4.521,2.354c-1.704,3.963,2.892,9.579,6.511,10.497c0.108,0.027,0.195,0.061,0.271,0.096
	c0.039,0.019,0.067,0.04,0.098,0.06c0.027,0.018,0.055,0.035,0.076,0.054c0.034,0.031,0.06,0.063,0.081,0.097
	c0.005,0.008,0.011,0.017,0.016,0.026c0.02,0.041,0.034,0.083,0.038,0.126c0,0,0,0.001,0,0.001c0.001,0.006,0.005,0.012,0.005,0.019
	c0,0.026,0,0.052,0,0.078c-0.082,3.749,0.643,7.501,2.49,10.486c2.2-0.927,4.044-2.518,6.159-3.62
	c0.591-0.308,1.404-0.584,2.054-0.265c0.601,0.294,0.177,0.931-0.248,1.153c-2.407,1.254-4.49,3.05-7.03,4.046
	c0.657,0.815,1.415,1.554,2.29,2.19c1.157-1.655,2.746-2.889,4.176-4.297c0.491-0.483,1.252-0.708,1.928-0.734
	c0.3-0.011,1.224,0.145,0.727,0.634c-1.492,1.468-3.167,2.734-4.333,4.5c-0.182,0.275-0.799,0.505-1.403,0.608
	c0.761,0.436,1.59,0.808,2.499,1.1c6.672,2.143,14.311,0.531,20.408-2.625C201.365,363.577,207.332,358.898,209.141,352.428z
	 M228.739,372.302c0.021,0.019,0.032,0.038,0.051,0.057c3.781,0,7.563,0,11.344,0c-4.386-1.256-8.517-3.406-10.404-7.365
	c-0.004-0.01-0.008-0.02-0.013-0.029C227.404,366.861,226.075,369.872,228.739,372.302z M306.142,245.679
	c-3.818,8.774-4.715,19.18-6.528,28.509c7.602,0,15.203,0,22.804,0c-3.011-5.185-0.758-10.862,0.061-16.43
	c0.136-0.922,3.046-1.457,2.89-0.393c-0.773,5.259-3.141,11.088-0.095,16c0.183,0.295,0.04,0.585-0.258,0.823c0.4,0,0.801,0,1.201,0
	c0.765,0,0.91,0.241,0.746,0.533c3.487,1.028,5.4,5.216,6.638,8.3c2.529,6.303,4.008,13.024,5.229,19.688
	c0.998,5.446,1.831,10.933,2.525,16.437c2.605-2.114,5.939-2.902,9.392-3.297c0.925-0.105,1.858-0.184,2.789-0.25
	c1.627-0.117,3.246-0.202,4.793-0.349c0.045-0.125,0.129-0.261,0.271-0.412c7.773-8.213,16.959-14.967,25.714-22.091
	c-0.064-0.068-0.121-0.144-0.164-0.232c-6.009-12.385-13.111-24.196-18.939-36.674c-0.555-1.188,2.31-2.036,2.897-0.776
	c5.745,12.3,12.725,23.957,18.678,36.151c1.016-0.039,1.985,0.66,0.87,1.579c-8.508,7.011-17.534,13.572-25.291,21.441
	c4.07,4.796,2.226,11.567,3.105,17.331c0.004,0.027-0.004,0.053-0.008,0.08c10.375-5.316,20.438-11.299,30.094-17.833
	c4.208-2.848,8.924-6.004,11.785-10.319c3.056-4.608,2.318-8.817,1.262-14.023c-2.417-11.908-6.47-23.564-12.101-34.343
	c-3.842-7.355-8.402-15.677-15.063-20.96h-0.477c-7.778,1.807-17.555-1.401-22.8-7.368c-1.595-1.814-2.993-3.77-4.217-5.822
	c-3.379,3.502-8.189,3.555-12.911,3.471c0.093,0.897,0.148,1.819,0.166,2.764c0.016,0.817-2.568,1.272-2.867,0.858
	C327.015,232.944,311.735,232.829,306.142,245.679z M368.612,335.657c-0.052,0.117-0.12,0.218-0.185,0.321
	c10.794,2.227,22.12,0.577,32.81-1.516c0.331-6.412-2.268-13.066-5.326-18.696c-9.222,6.12-18.75,11.775-28.584,16.851
	C368.036,333.175,368.901,335.001,368.612,335.657z M342.68,331.784c0.002,0.026,0.005,0.052,0.007,0.079c6.609,0,13.217,0,19.826,0
	c-0.115-0.921-0.171-1.871-0.191-2.84c-1.388,0.75-2.842,1.249-4.333,1.554c-0.94,0.193-1.896,0.304-2.86,0.353
	c-3.477,0.178-7.061-0.483-10.437-1.387c-0.333,0.487-0.645,0.989-0.919,1.517C343.586,331.421,343.154,331.665,342.68,331.784z
	 M342.658,320.284c-0.174,0.197-0.625,0.363-1.113,0.467c0.313,2.602,0.591,5.206,0.833,7.813c0.956-1.332,2.026-2.583,3.02-3.891
	c0.794-1.045,3.537-0.624,2.422,0.844c-0.578,0.76-1.19,1.498-1.788,2.245c4.772,1.347,10.561,2.605,14.961,0.005
	c0.334-0.197,0.832-0.262,1.289-0.228c0.009,0,0.018,0,0.027,0c0-0.024,0-0.048,0-0.072c0-3.963,0.14-8.06-1.972-11.303
	c-0.085,0.024-0.171,0.044-0.256,0.058C354.637,317.099,346.625,315.8,342.658,320.284z M246.747,275.758
	c-0.147,0.279-0.461,0.532-1.021,0.644c-7.108,1.426-1.843,21.949-0.89,26.093c2.263,9.842,5.015,20.224,9.802,29.187
	c0.033,0.062,0.051,0.123,0.068,0.183c0.006,0,0.015-0.002,0.021-0.002c28.331,0,56.662,0,84.993,0
	c-0.713-8.501-1.795-17.004-3.257-25.404c-1.148-6.6-2.423-13.285-4.628-19.627c-1.159-3.336-2.982-9.607-7.078-10.418
	c-0.563-0.111-0.693-0.368-0.58-0.655C298.366,275.758,272.557,275.758,246.747,275.758z M307.698,337.121
	c0.359,0,0.718-0.001,1.078-0.002c1.324-0.086,2.631-0.086,3.903-0.006c10.545-0.01,21.091-0.024,31.636-0.054
	c4.925-0.013,9.85-0.028,14.774-0.047c0.993-0.004,6.288,0.253,6.607-1.158c0.032-0.141,0.031-0.293-0.046-0.47
	c-0.276-0.631-0.832-1.219-1.193-1.837c-0.086-0.147-0.173-0.295-0.229-0.448c-7.379,0-14.759,0-22.139,0
	c-0.744,0.477-1.92,0.57-2.21,0c-28.623,0-57.245,0-85.868,0c-1.809,5.153,7.401,3.848,10.823,3.898
	c3.255,0.048,6.511,0.066,9.767,0.081C285.633,337.128,296.666,337.128,307.698,337.121z M311.676,148.62
	c3.014-1.595,6.343-3.061,9.917-4.5C318.103,145.222,314.75,146.726,311.676,148.62z M331.628,211.654
	c5.885,1.877,8.416,6.146,9.245,11.533c4.048,0.061,8.439,0.885,11.164-2.836c0.197-0.269,0.697-0.45,1.226-0.555
	c-3.808-6.9-5.616-14.858-5.477-22.773c0.015-0.823,1.414-1.316,2.271-1.073c0.122-0.04,0.248-0.072,0.384-0.086
	c5.035-0.522,6.668-4.764,4.547-9.085c-0.739-1.505-1.842-3.139-3.384-3.92c-2.754-1.395-4.228,1.483-5.197,3.629
	c-0.398,0.883-2.057,1.249-2.709,0.481c-0.421-0.497-0.836-1.001-1.244-1.512c-0.718-0.593-1.604-1.499-2.703-2.9
	c-1.279-1.633-2.061-3.506-2.536-5.301c-1.001-2.171-1.735-4.459-2.078-6.883c-0.037-0.259,0.042-0.495,0.192-0.697
	c-7.776-1.186-15.523-6.433-20.572-11.66c-2.859,4.516-6.89,7.821-11.773,9.998c-0.215,1.053-0.396,2.12-0.546,3.195
	c1.956-1.124,4.192-1.669,6.262-0.418c1.313,0.794-1.302,2.136-2.266,1.554c-1.029-0.623-1.728-0.305-2.682,0.311
	c-0.421,0.272-1.01,0.462-1.542,0.392c-0.512,4.753-0.483,9.607-0.213,14.1c0.435,7.241,1.313,16.521,8.583,20.247
	C317.19,210.776,324.732,209.454,331.628,211.654z M124.862,326.922c0.36,0.028,0.716,0.065,1.059,0.12
	c11.068,1.78,18.056,13.296,22.66,22.47c3.574,7.12,6.655,14.595,8.868,22.259c0.062,0.213,0.032,0.41-0.052,0.588
	c3.644,0,7.287,0,10.93,0c-0.12-0.355-0.15-0.757-0.033-1.208c0.293-1.127,1.239-1.826,2.309-2.191
	c-4.616-2.491-7.65-7.17-7.549-14.619c-4.528-1.66-10.559-9.443-5.83-13.465c3.435-2.922,10.547-4.532,14.28-1.305
	c3.872-4.1,10.167-6.599,15.948-7.301c-1.715-5.188,4.339-11.308,9.283-11.927c5.323-0.667,8.558,6.478,8.058,11.282
	c4.941-3.843,12.143-3.961,18.092-2.64c5.025,1.115,14.169,3.585,17.067,8.885c3.503-1.343,7.322-1.883,11.121-1.794
	c-0.334-0.725-0.29-1.699,0.318-3.009c0.069-0.148,0.244-0.273,0.472-0.377c-5.616-10.598-8.975-23.128-11.038-34.868
	c-1.018-5.792-4.491-21.435,4.418-23.222c0.044-0.009,0.078-0.001,0.121-0.008c0.386-0.23,0.84-0.404,1.183-0.404
	c16.761,0,33.521,0,50.282,0c0.96-5.071,1.654-10.554,2.756-15.906c-0.181,0.053-0.339,0.086-0.442,0.085
	c-32.077-0.283-64.409-0.354-96.385,2.418c-11.999,1.04-25.188,1.356-36.229,6.719c-9.746,4.733-16.388,12.311-21.957,21.385
	C137.113,301.041,130.691,313.911,124.862,326.922z M124.949,372.667c0.75-0.194,1.515-0.363,2.308-0.481
	c0.52-0.078,0.847,0.007,1.025,0.174c8.737,0,17.474,0,26.21,0c-1.725-5.932-3.977-11.777-6.555-17.384
	c-3.991-8.677-9.448-19.744-18.393-24.299c-4.699-2.393-12.184-2.439-15.452,2.438c-2.798,4.175-2.02,9.833-0.776,14.412
	C115.752,356.485,120.215,364.732,124.949,372.667z M155.189,453.139c-4.55,0-9.099,0-13.649,0
	c-0.375,0.162-0.787,0.236-1.128,0.158c-0.127,3.216-0.542,6.425-0.7,9.64c-0.138,2.813-1.242,9.647,1.24,11.807
	c3.459,3.009,12.539-18.384,13.253-20.771C154.317,453.603,154.718,453.316,155.189,453.139z M339.579,451.54
	c-13.71-19.308-25.135-40.233-39.231-59.262c-0.769-1.038-1.574-2.041-2.387-3.035c-2.451,4.7-7.039,7.731-12.346,8.883
	c-5.078,1.103-12.189,1.903-15.882-2.81c-4.245-5.418-2.877-11.182,1.077-16.25c1.592-2.04,3.255-4.204,4.861-6.46
	c-2.261,0.419-4.544,0.774-6.843,1.061c-0.333,0.173-0.692,0.293-0.979,0.293c-0.536,0-1.073,0-1.609,0
	c-5.812,0.58-11.68,0.668-17.427,0c-6.797,0-13.594,0-20.39,0c-0.588,0.373-1.425,0.496-1.908,0.056
	c-0.02-0.019-0.034-0.038-0.054-0.056c-32.984,0-65.969,0-98.953,0c-0.169,0.082-0.355,0.144-0.555,0.174
	c-0.808,0.12-1.588,0.31-2.352,0.542c-0.22,0.112-0.462,0.192-0.706,0.23c-13.014,4.594-19.354,24.895-17.121,37.285
	c3.551,19.7,17.247,31.918,35.185,39.237c0.086,0.035,0.155,0.074,0.221,0.113C207.979,451.54,273.779,451.54,339.579,451.54z
	 M371.538,461.655c-6.083,2.922-13.93,2.444-20.576,1.617c-0.122,0.047-0.239,0.097-0.393,0.131
	c-3.841,0.859-9.257,0.723-12.664,2.812c-4.043,2.479-6.11,8.027-7.964,12.295c16.864,0,33.728,0,50.593,0
	C380.148,472.039,377.876,464.165,371.538,461.655z M363,440.836c-3.935-8.693-7.523-17.539-11.06-26.399
	c-2.736-6.855-6.028-13.695-8.074-20.791c-2.732-9.477-5.525-20.464-17.36-20.84c-1.954-0.062,0.157-1.543,1.163-1.511
	c2.34,0.074,4.395,0.501,6.211,1.223c0.243-0.097,0.484-0.158,0.689-0.158c6.852,0,13.703,0,20.554,0
	c9.486-0.406,18.982-1.209,28.161-3.251c5.328-1.185,12.909-2.636,15.526-8.109c3.728-7.796,3.014-16.331,2.823-24.723
	c-11.732,2.294-24.021,4.023-35.83,1.336c-0.043-0.01-0.072-0.023-0.11-0.035c-0.174,0.05-0.347,0.097-0.516,0.145
	c-4.196,1.18-9.541,0.413-13.868,0.427c-12.409,0.041-24.817,0.063-37.226,0.076c-0.536,0.305-1.244,0.551-1.613,0.506
	c-7.563-0.922-16.993,1.991-21.809,8.184c-5.095,6.552-3.615,15.397-1.074,22.78c3.808,11.063,12.045,19.115,18.467,28.651
	c11.828,17.564,22.562,36.07,35.009,53.253c0.262,0.075,0.334,0.218,0.283,0.388c2.341,3.221,4.738,6.4,7.22,9.511
	c7.056,0.972,16.715,2.252,22.458-2.774C368.488,453.795,365.711,446.823,363,440.836z M336.651,373.959
	c0.053,0.036,0.102,0.077,0.155,0.113c0-0.037,0.004-0.075,0.009-0.113C336.76,373.959,336.706,373.959,336.651,373.959z
	 M436.038,462.438c-0.203-3.085-0.576-6.174-0.669-9.266c-0.035-0.01-0.068-0.021-0.102-0.034c-4.484,0-8.969,0-13.454,0
	c1.106,3.556,2.546,7.055,4.2,10.381c1.444,2.904,5.188,11.429,9.382,11.378C436.478,474.885,436.113,463.581,436.038,462.438z
	 M470.594,410.557c0.612-13.48-5.641-34.119-21.116-36.422c-0.244-0.036-0.431-0.097-0.57-0.176c-29.061,0-58.122,0-87.182,0
	c-7.927,0.538-15.894,0.669-23.705,0.863c-0.075,0.002-0.139-0.004-0.207-0.008c3.326,2.693,5.529,6.76,7.055,11.624
	c2.385,7.604,5.033,14.835,7.982,22.236c3.762,9.441,7.494,18.904,11.618,28.195c2.073,4.671,4.125,9.978,6.854,14.67
	c21.378,0,42.756,0,64.135,0C452.736,444.47,469.672,430.849,470.594,410.557z M438.265,452.415
	c0.026,0.948,0.237,2.604,0.478,4.631c6.606,0.016,13.213,0.031,19.819,0.047c0.048-5.871,0.097-11.741,0.146-17.611
	C452.83,444.905,445.708,449.201,438.265,452.415z M498.861,474.118c-0.826-3.333-5.203-6.138-7.458-8.199
	c-1.998-1.826-4.146-3.881-4.669-6.586c-15.914-0.038-31.828-0.076-47.742-0.114c0.545,5.002,0.967,11.226-0.489,14.756
	C458.623,474.022,478.742,474.07,498.861,474.118z M281.286,309.312c0.294-3.712,2.15-6.979,2.952-10.566
	c0.079-0.354,0.801-0.641,1.5-0.764c0.542-0.151,1.076-0.191,1.294,0.016c3.668,3.484,12.699,16.458,2.017,16.736
	C285.413,314.828,280.924,313.876,281.286,309.312z M287.835,313.358c2.207,0.374,3.896,0.147,3.502-2.493
	c-0.203-1.363-0.653-2.67-1.272-3.901c-1.056-2.101-2.344-4.116-3.862-5.928C284.535,305.67,281.934,312.359,287.835,313.358z" fill="#4a4a4a"></path>
</svg>